<svg width="167" height="85" viewBox="0 0 167 85" fill="none" xmlns="http://www.w3.org/2000/svg">
<path d="M80.69 13.725C78.03 13.725 77.33 19.64 77.085 21.425L77.12 21.46C77.12 23.84 76.735 26.185 76.735 28.6C76.735 32.38 76.42 36.965 81.495 36.965C83.28 36.965 84.645 36.09 86.08 35.18H86.605L86.885 36.72C87.2 36.685 87.55 36.825 87.9 36.825C88.39 36.825 89.72 36.685 90.21 36.475C90.28 34.13 89.825 31.4 90.98 29.37V28.215C90.98 27.41 90.91 26.57 90.875 25.765L90.315 25.695C88.005 25.695 85.065 25.835 82.79 26.15C82.685 26.5 82.65 26.92 82.65 27.305C82.65 27.795 82.685 29.09 82.965 29.475L84.54 29.685V30.42C84.33 30.595 83.21 31.085 83 31.085C80.445 31.085 79.605 28.81 79.605 26.535C79.605 22.93 81.985 21.32 85.415 21.32C86.115 21.32 86.605 22.09 86.885 22.65C87.025 22.685 87.2 22.72 87.41 22.72C88.565 22.72 89.475 22.475 90.665 22.685C91.015 22.23 91.015 17.015 91.015 16.07C91.015 15.335 91.12 14.215 90.735 13.62C89.72 13.9 88.74 13.725 87.725 13.935C87.655 14.18 87.48 14.46 87.27 14.565C85.345 13.9 82.79 13.725 80.69 13.725ZM98.817 19.815C99.237 19.465 99.797 19.36 100.287 19.36C100.847 19.36 102.597 19.955 102.597 20.725C102.597 22.405 101.092 23.875 99.377 23.875C98.782 23.875 98.327 22.055 98.327 21.635C98.327 21.005 98.607 20.375 98.817 19.815ZM93.252 14.495C93.252 16 92.867 17.54 92.867 19.045C92.867 19.675 92.867 20.235 93.042 20.83C93.602 21.355 94.232 21.635 94.407 22.44C94.862 24.925 94.827 27.97 94.827 30.49L94.687 30.7L93.812 30.77C93.532 32.205 93.637 34.095 93.637 35.6L93.707 36.72L93.917 36.93L94.337 36.965C95.317 36.965 98.887 36.825 99.237 36.545L99.272 34.34C99.272 33.43 99.237 32.555 99.062 31.68L98.852 31.54L98.257 31.575L97.977 31.365C97.907 30.98 97.872 30.63 97.872 30.245C97.872 29.51 97.942 28.74 98.117 28.04H98.327C101.897 28.04 99.342 36.755 102.667 36.755C107.322 36.755 107.112 34.025 107.112 30.315V28.39C107.007 28.355 106.797 28.285 106.692 28.285C105.432 28.285 105.502 28.355 104.557 29.125L104.522 30.63L104.032 30.91C103.227 30.77 103.332 28.88 103.052 28.32C102.807 27.76 102.072 27.515 101.757 26.955C105.012 25.73 106.097 23.7 106.097 20.375C106.097 12.99 103.752 13.41 97.172 13.41C95.947 13.41 93.252 12.885 93.252 14.495ZM120.197 13.655C116.767 13.97 113.407 13.76 109.977 13.76C109.872 13.76 109.662 13.9 109.522 13.935L109.487 18.03C109.487 19.08 109.382 20.375 109.697 21.39C110.852 21.495 110.677 22.23 110.677 23.14C110.677 24.995 110.642 26.885 110.572 28.74L110.327 28.95H109.627L109.452 29.09C109.312 31.645 109.207 34.2 109.137 36.755C109.382 36.86 109.627 36.86 109.837 36.86C113.372 36.86 116.767 36.3 120.267 36.58C121.037 36.195 120.897 31.75 120.897 30.665C120.897 30.105 121.002 29.51 120.617 28.985H118.972C118.762 28.985 118.482 29.09 118.307 29.125C118.202 29.51 118.027 29.93 117.712 30.175C117.012 30.245 116.207 30.245 115.507 30.245H114.527C114.247 29.755 114.247 29.16 114.247 28.635C114.247 28.355 114.422 27.935 114.597 27.725C115.262 27.725 117.607 27.795 118.097 27.55C117.852 26.465 118.097 25.38 118.097 24.26C118.097 24.12 117.992 23.91 117.957 23.735C117.082 23.63 115.927 23.35 115.087 23.525C114.737 23.07 114.737 22.37 114.667 21.845C115.262 21.775 116.067 21.565 116.662 21.565H118.342C118.692 21.565 118.762 22.37 118.727 22.58L118.902 22.72H119.497C119.777 22.72 120.092 22.685 120.337 22.615C120.512 22.335 120.617 15.265 120.722 14.005L120.197 13.655ZM134.586 13.655C131.156 13.97 127.796 13.76 124.366 13.76C124.261 13.76 124.051 13.9 123.911 13.935L123.876 18.03C123.876 19.08 123.771 20.375 124.086 21.39C125.241 21.495 125.066 22.23 125.066 23.14C125.066 24.995 125.031 26.885 124.961 28.74L124.716 28.95H124.016L123.841 29.09C123.701 31.645 123.596 34.2 123.526 36.755C123.771 36.86 124.016 36.86 124.226 36.86C127.761 36.86 131.156 36.3 134.656 36.58C135.426 36.195 135.286 31.75 135.286 30.665C135.286 30.105 135.391 29.51 135.006 28.985H133.361C133.151 28.985 132.871 29.09 132.696 29.125C132.591 29.51 132.416 29.93 132.101 30.175C131.401 30.245 130.596 30.245 129.896 30.245H128.916C128.636 29.755 128.636 29.16 128.636 28.635C128.636 28.355 128.811 27.935 128.986 27.725C129.651 27.725 131.996 27.795 132.486 27.55C132.241 26.465 132.486 25.38 132.486 24.26C132.486 24.12 132.381 23.91 132.346 23.735C131.471 23.63 130.316 23.35 129.476 23.525C129.126 23.07 129.126 22.37 129.056 21.845C129.651 21.775 130.456 21.565 131.051 21.565H132.731C133.081 21.565 133.151 22.37 133.116 22.58L133.291 22.72H133.886C134.166 22.72 134.481 22.685 134.726 22.615C134.901 22.335 135.006 15.265 135.111 14.005L134.586 13.655ZM138.091 33.535C138.301 34.41 138.161 35.6 138.126 36.545L138.301 36.825C138.756 36.825 139.211 36.895 139.631 36.895C140.471 36.895 142.641 36.965 143.271 36.72C143.306 35.18 143.446 33.675 143.446 32.135C143.446 31.82 143.411 31.47 143.306 31.12L142.501 30.665C142.431 30.35 142.396 30.035 142.396 29.685C142.396 27.06 142.571 24.4 142.606 21.775L143.061 21.565C144.181 26.57 144.671 31.505 146.141 36.545C148.171 36.86 150.271 36.615 152.301 36.86C152.826 36.195 152.651 33.535 152.651 32.59C152.651 31.645 152.756 29.65 152.406 28.915L151.356 28.67C150.901 27.83 151.041 26.395 151.041 25.45C151.041 23.98 150.936 21.04 151.531 19.815L153.071 19.675C153.246 19.43 153.246 14.18 153.246 13.865C153.106 13.865 152.931 13.725 152.791 13.725C150.971 13.725 149.151 13.795 147.366 13.865C147.331 13.9 147.121 14.285 147.121 14.39C147.121 15.475 147.051 18.485 147.331 19.36C148.696 19.85 148.346 21.285 148.346 22.51C148.346 24.575 148.241 26.64 148.101 28.67L147.751 28.915C147.681 24.05 145.896 18.59 144.706 13.935C143.306 13.935 141.836 13.83 140.401 13.83C139.876 13.83 139.386 13.865 138.931 13.9C138.406 15.79 138.616 18.1 138.476 20.06C138.476 20.375 139.141 20.76 139.351 20.9C139.421 21.11 139.561 21.495 139.561 21.74C139.561 24.26 140.261 32.38 138.091 33.535ZM80.69 48.725C78.03 48.725 77.33 54.64 77.085 56.425L77.12 56.46C77.12 58.84 76.735 61.185 76.735 63.6C76.735 67.38 76.42 71.965 81.495 71.965C83.28 71.965 84.645 71.09 86.08 70.18H86.605L86.885 71.72C87.2 71.685 87.55 71.825 87.9 71.825C88.39 71.825 89.72 71.685 90.21 71.475C90.28 69.13 89.825 66.4 90.98 64.37V63.215C90.98 62.41 90.91 61.57 90.875 60.765L90.315 60.695C88.005 60.695 85.065 60.835 82.79 61.15C82.685 61.5 82.65 61.92 82.65 62.305C82.65 62.795 82.685 64.09 82.965 64.475L84.54 64.685V65.42C84.33 65.595 83.21 66.085 83 66.085C80.445 66.085 79.605 63.81 79.605 61.535C79.605 57.93 81.985 56.32 85.415 56.32C86.115 56.32 86.605 57.09 86.885 57.65C87.025 57.685 87.2 57.72 87.41 57.72C88.565 57.72 89.475 57.475 90.665 57.685C91.015 57.23 91.015 52.015 91.015 51.07C91.015 50.335 91.12 49.215 90.735 48.62C89.72 48.9 88.74 48.725 87.725 48.935C87.655 49.18 87.48 49.46 87.27 49.565C85.345 48.9 82.79 48.725 80.69 48.725ZM100.252 56.075C100.462 56.075 100.637 57.335 100.707 57.51C101.057 58.98 101.127 60.66 101.127 62.2V62.97C100.742 63.11 100.287 63.215 99.902 63.215L99.552 63.18V62.69C99.552 61.395 99.447 60.17 99.447 58.875C99.447 58.28 99.482 56.075 100.252 56.075ZM95.737 48.97L95.457 49.18L95.422 49.565C95.422 50.755 95.422 53.695 95.702 54.745L96.402 55.06C96.577 55.41 96.577 55.76 96.577 56.11C96.577 57.09 94.582 64.825 94.127 65.35H93.357L93.182 65.56C93.007 67.345 92.972 69.095 92.972 70.915C92.972 70.985 93.217 71.405 93.252 71.51C95.177 71.51 97.137 71.3 99.097 71.335C99.167 70.635 99.202 69.97 99.202 69.27C99.202 68.36 99.272 67.8 98.432 67.275L98.257 66.82C98.362 66.33 98.817 65.875 99.132 65.525H101.407C101.372 66.12 101.792 66.61 101.792 67.24V67.345L101.442 67.555V68.22C101.442 69.375 101.617 70.6 101.652 71.79C101.932 71.895 102.212 71.93 102.527 71.93C103.787 71.93 105.117 71.58 106.342 71.58C107.112 71.58 108.057 71.895 108.932 71.895C109.002 71.755 109.072 71.51 109.072 71.3C109.072 69.305 108.862 67.135 108.792 65.105L108.652 64.93L107.742 65C107.637 65 107.427 64.895 107.322 64.86C107.042 64.3 104.242 55.165 104.242 54.745C104.242 54.43 104.592 53.905 104.872 53.73L104.907 53.17C104.907 51.945 104.382 50.335 104.207 49.04C101.372 49.04 98.572 49.215 95.737 48.97ZM111.056 48.76C110.986 48.9 110.846 49.145 110.846 49.25C110.846 50.825 110.951 52.365 110.881 53.94C111.196 54.255 111.651 54.395 112.071 54.43C112.771 56.285 112.526 63.145 112.526 65.56C112.526 65.63 112.386 66.015 112.316 66.19L111.301 66.435C111.196 66.785 111.196 67.135 111.196 67.485C111.196 68.885 111.371 70.285 111.406 71.65L112.106 71.685C113.716 71.685 115.326 71.545 117.006 71.58C117.076 71.44 117.146 71.23 117.146 71.02C117.146 69.445 116.901 67.835 116.866 66.225L116.726 66.085L115.851 66.19C114.801 65.42 114.836 59.085 114.766 57.405H115.326C116.936 60.8 118.021 64.615 119.106 68.185L119.946 68.22C120.821 68.22 121.696 68.08 122.536 67.8C122.781 65.945 123.551 59.855 124.251 58.525L124.776 58.77C124.741 60.1 124.811 65.42 124.426 66.225L123.271 66.575C123.096 66.89 123.131 67.275 123.131 67.625C123.131 68.22 123.271 71.37 123.481 71.86C125.546 71.58 127.541 71.545 129.571 71.545C129.746 71.545 129.921 71.44 130.096 71.405C129.991 70.495 129.886 66.925 129.501 66.4L128.661 66.085C127.856 64.58 127.891 58.07 127.891 56.04C127.891 55.62 127.961 55.2 128.136 54.85C128.626 54.745 129.116 54.745 129.571 54.71C129.851 54.01 129.851 50.44 129.851 49.46C129.851 49.32 129.606 48.865 129.536 48.69C127.471 48.865 125.406 49.075 123.271 49.075C123.026 49.075 122.711 49.18 122.501 49.215C121.801 53.905 121.451 58.63 120.716 63.25L120.156 63.04C119.001 59.925 118.336 56.88 117.496 53.695C117.041 52.05 116.131 50.44 115.641 48.83C114.136 48.935 112.561 48.9 111.056 48.76ZM143.336 48.655C139.906 48.97 136.546 48.76 133.116 48.76C133.011 48.76 132.801 48.9 132.661 48.935L132.626 53.03C132.626 54.08 132.521 55.375 132.836 56.39C133.991 56.495 133.816 57.23 133.816 58.14C133.816 59.995 133.781 61.885 133.711 63.74L133.466 63.95H132.766L132.591 64.09C132.451 66.645 132.346 69.2 132.276 71.755C132.521 71.86 132.766 71.86 132.976 71.86C136.511 71.86 139.906 71.3 143.406 71.58C144.176 71.195 144.036 66.75 144.036 65.665C144.036 65.105 144.141 64.51 143.756 63.985H142.111C141.901 63.985 141.621 64.09 141.446 64.125C141.341 64.51 141.166 64.93 140.851 65.175C140.151 65.245 139.346 65.245 138.646 65.245H137.666C137.386 64.755 137.386 64.16 137.386 63.635C137.386 63.355 137.561 62.935 137.736 62.725C138.401 62.725 140.746 62.795 141.236 62.55C140.991 61.465 141.236 60.38 141.236 59.26C141.236 59.12 141.131 58.91 141.096 58.735C140.221 58.63 139.066 58.35 138.226 58.525C137.876 58.07 137.876 57.37 137.806 56.845C138.401 56.775 139.206 56.565 139.801 56.565H141.481C141.831 56.565 141.901 57.37 141.866 57.58L142.041 57.72H142.636C142.916 57.72 143.231 57.685 143.476 57.615C143.651 57.335 143.756 50.265 143.861 49.005L143.336 48.655ZM152.616 54.815C153.036 54.465 153.596 54.36 154.086 54.36C154.646 54.36 156.396 54.955 156.396 55.725C156.396 57.405 154.891 58.875 153.176 58.875C152.581 58.875 152.126 57.055 152.126 56.635C152.126 56.005 152.406 55.375 152.616 54.815ZM147.051 49.495C147.051 51 146.666 52.54 146.666 54.045C146.666 54.675 146.666 55.235 146.841 55.83C147.401 56.355 148.031 56.635 148.206 57.44C148.661 59.925 148.626 62.97 148.626 65.49L148.486 65.7L147.611 65.77C147.331 67.205 147.436 69.095 147.436 70.6L147.506 71.72L147.716 71.93L148.136 71.965C149.116 71.965 152.686 71.825 153.036 71.545L153.071 69.34C153.071 68.43 153.036 67.555 152.861 66.68L152.651 66.54L152.056 66.575L151.776 66.365C151.706 65.98 151.671 65.63 151.671 65.245C151.671 64.51 151.741 63.74 151.916 63.04H152.126C155.696 63.04 153.141 71.755 156.466 71.755C161.121 71.755 160.911 69.025 160.911 65.315V63.39C160.806 63.355 160.596 63.285 160.491 63.285C159.231 63.285 159.301 63.355 158.356 64.125L158.321 65.63L157.831 65.91C157.026 65.77 157.131 63.88 156.851 63.32C156.606 62.76 155.871 62.515 155.556 61.955C158.811 60.73 159.896 58.7 159.896 55.375C159.896 47.99 157.551 48.41 150.971 48.41C149.746 48.41 147.051 47.885 147.051 49.495Z" fill="url(#paint0_linear_80_168)"/>
<g opacity="0.2">
<path d="M34.5926 85C53.6568 85 69.1114 82.9298 69.1114 80.376C69.1114 77.8222 53.6568 75.752 34.5926 75.752C15.5284 75.752 0.0738525 77.8222 0.0738525 80.376C0.0738525 82.9298 15.5284 85 34.5926 85Z" fill="#2E0052"/>
</g>
<path d="M40.0105 1.10289C27.4579 -0.51436 16.4479 4.66298 15.4252 12.6685C15.1666 14.69 15.5713 16.6993 16.5208 18.5981C17.0658 17.2773 17.9893 16.0928 19.1163 15.1513C19.0003 14.454 18.9935 13.7427 19.096 13.0432C20.1399 5.95314 29.5616 3.25984 39.6451 4.55942C49.7286 5.85899 58.4422 11.7209 57.621 18.1513C57.4955 19.1071 57.1676 20.0249 56.6595 20.8428C57.1664 22.2648 56.9801 23.8617 56.8077 25.479C59.0814 23.5802 60.5477 21.2127 60.8911 18.5255C61.9161 10.5222 52.5667 2.72197 40.0105 1.10289Z" fill="#606060"/>
<g opacity="0.6">
<path d="M60.9259 18.2245C60.2507 10.9962 51.4663 4.37535 40.0108 2.89932C27.4561 1.28115 16.4497 6.45819 15.4261 14.4652C15.4137 14.5654 15.4013 14.6656 15.3926 14.7662C15.3258 14.0681 15.337 13.3646 15.4261 12.6691C16.4497 4.66205 27.4561 -0.514985 40.0108 1.10348C52.4097 2.69918 61.6799 10.3268 60.9259 18.2245Z" fill="white"/>
</g>
<path d="M56.8074 26.2834C56.695 26.2834 56.5838 26.2597 56.4811 26.2137C56.3785 26.1677 56.2866 26.1006 56.2114 26.0166C56.1363 25.9327 56.0796 25.8338 56.045 25.7264C56.0104 25.619 55.9987 25.5055 56.0107 25.3932L56.0228 25.2796C56.1849 23.7611 56.338 22.3288 55.9048 21.1137C55.8644 21.0001 55.8498 20.8789 55.8624 20.759C55.8749 20.6391 55.9141 20.5235 55.9771 20.4209C56.425 19.6997 56.7145 18.8908 56.8261 18.0483C57.1752 15.3149 55.5509 12.4865 52.2528 10.0817C48.9836 7.69787 44.3513 5.97554 39.5441 5.35627C30.7972 4.2289 20.9157 6.19056 19.8897 13.1616C19.7997 13.7785 19.8057 14.4056 19.9076 15.0206C19.9304 15.1591 19.9167 15.3012 19.8679 15.4328C19.8191 15.5643 19.7368 15.6808 19.6293 15.7705C18.557 16.6655 17.7382 17.7501 17.2612 18.9072C17.2025 19.0496 17.1042 19.1721 16.9782 19.2601C16.8521 19.3481 16.7035 19.3978 16.55 19.4034C16.3966 19.409 16.2448 19.3702 16.1127 19.2917C15.9806 19.2131 15.8737 19.0981 15.8048 18.9603C14.7522 16.8553 14.3569 14.7042 14.6303 12.5673C15.1615 8.41129 18.1532 4.85363 23.0539 2.54726C27.833 0.299807 33.8915 -0.497735 40.1133 0.303452C46.3343 1.10707 51.9951 3.41405 56.0557 6.80132C60.2184 10.2742 62.2186 14.4742 61.6869 18.6281C61.3278 21.4286 59.8176 24.0117 57.3201 26.0975C57.176 26.2176 56.9946 26.2834 56.8074 26.2834ZM57.5309 20.9381C57.7572 21.7387 57.8089 22.5675 57.7832 23.4012C59.0774 21.8997 59.8684 20.2065 60.0974 18.4204C61.0632 10.8701 52.0062 3.45839 39.9086 1.89854C27.813 0.342934 17.1856 5.21991 16.2198 12.7707C16.052 14.084 16.185 15.4106 16.6158 16.7314C17.0858 16.031 17.6398 15.3914 18.2654 14.8269C18.1988 14.1937 18.2119 13.5546 18.3045 12.9247C18.8407 9.2802 21.3991 6.5049 25.7023 4.9001C29.4929 3.48633 34.4807 3.08118 39.7479 3.76028C44.8135 4.41295 49.7144 6.24219 53.1947 8.77969C56.9883 11.5459 58.8424 14.9104 58.4156 18.2536C58.2925 19.1971 57.9921 20.1084 57.5303 20.9393L57.5309 20.9381Z" fill="#2E0052"/>
<path d="M6.20889 15.4246L8.6441 11.1745C9.06824 10.4349 9.76748 9.8947 10.5881 9.67259C11.4088 9.45048 12.2837 9.56465 13.0206 9.99001L13.4882 10.2603C14.2248 10.6862 14.7628 11.3883 14.984 12.2123C15.2052 13.0363 15.0915 13.9148 14.6678 14.6547L12.2329 18.9045C11.8088 19.6441 11.1095 20.1843 10.2889 20.4064C9.46823 20.6285 8.59331 20.5143 7.85646 20.089L7.38884 19.819C6.65223 19.3931 6.11416 18.6911 5.8929 17.867C5.67164 17.043 5.7853 16.1645 6.20889 15.4246Z" fill="#698FFF"/>
<path d="M9.44865 21.2221C8.76696 21.2215 8.09744 21.0407 7.50738 20.6979L7.04006 20.4282C5.1735 19.3498 4.52954 16.948 5.60241 15.0741L8.03731 10.824C8.55384 9.92275 9.40574 9.26439 10.4057 8.99374C11.4056 8.72309 12.4716 8.86232 13.3693 9.38079L13.8372 9.6514C14.2817 9.90812 14.6715 10.2502 14.9843 10.6582C15.2971 11.0662 15.5268 11.532 15.6603 12.0292C15.7938 12.5263 15.8285 13.0449 15.7623 13.5555C15.6962 14.0661 15.5306 14.5586 15.2749 15.0049L12.8394 19.2547C12.5848 19.7019 12.2445 20.094 11.838 20.4082C11.4315 20.7224 10.967 20.9525 10.4713 21.0852C10.1379 21.1759 9.79405 21.2219 9.44865 21.2221ZM11.4262 10.2616C10.9851 10.2617 10.5519 10.3784 10.17 10.6C9.78806 10.8216 9.47096 11.1402 9.25053 11.5238L6.81562 15.7736C6.485 16.3521 6.39642 17.0387 6.56931 17.6827C6.74221 18.3267 7.16246 18.8756 7.73786 19.2088L8.20518 19.4785C8.49032 19.6434 8.80501 19.7502 9.13127 19.7929C9.45753 19.8355 9.78897 19.8133 10.1067 19.7273C10.4243 19.6413 10.722 19.4934 10.9828 19.2918C11.2435 19.0903 11.4621 18.8392 11.6261 18.5528L14.0613 14.3039C14.2255 14.0176 14.3318 13.7016 14.3743 13.374C14.4168 13.0464 14.3946 12.7136 14.309 12.3946C14.2233 12.0756 14.0759 11.7767 13.8752 11.5149C13.6745 11.2532 13.4243 11.0337 13.1391 10.869L12.6712 10.5984C12.2928 10.3783 11.8635 10.2622 11.4262 10.2616Z" fill="#2E0052"/>
<path d="M7.24817 19.2954L12.6074 9.94109C13.0315 9.20143 13.7308 8.66117 14.5516 8.43906C15.3723 8.21694 16.2473 8.33117 16.9842 8.75662L17.4527 9.02753C18.1892 9.4534 18.7271 10.1555 18.9483 10.9794C19.1695 11.8033 19.0559 12.6818 18.6323 13.4216L13.2722 22.7743C12.8481 23.5139 12.1488 24.0541 11.3282 24.2762C10.5075 24.4983 9.6326 24.3842 8.89574 23.9588L8.42812 23.6888C7.69175 23.263 7.15386 22.5611 6.93261 21.7373C6.71136 20.9135 6.82486 20.0352 7.24817 19.2954Z" fill="#606060"/>
<path d="M8.20667 21.1614L13.5659 11.8071C13.99 11.0675 14.6893 10.5273 15.5099 10.3052C16.3306 10.0831 17.2055 10.1973 17.9423 10.6226L18.41 10.8929C19.1465 11.3188 19.6845 12.0209 19.9057 12.8449C20.1269 13.669 20.0132 14.5474 19.5896 15.2873L14.2301 24.6416C13.806 25.3812 13.1067 25.9214 12.2861 26.1435C11.4654 26.3656 10.5905 26.2514 9.85363 25.8261L9.38601 25.5561C8.64942 25.1301 8.11142 24.4279 7.89027 23.6039C7.66912 22.7798 7.78293 21.9012 8.20667 21.1614Z" fill="#606060"/>
<g opacity="0.6">
<path d="M19.0255 10.9075C18.8399 10.7285 18.6333 10.5728 18.4103 10.4438L17.9421 10.1726C17.5773 9.96184 17.1748 9.82533 16.7575 9.77082C16.3402 9.7163 15.9163 9.74486 15.51 9.85484C15.1037 9.96483 14.7229 10.1541 14.3894 10.4118C14.056 10.6696 13.7763 10.9908 13.5665 11.357L8.20699 20.7113C7.8473 21.3353 7.7082 22.0631 7.81227 22.7765C7.2937 22.2789 6.95628 21.6211 6.85396 20.9083C6.75164 20.1954 6.89033 19.4687 7.24785 18.8444L12.6071 9.49012C13.0312 8.7503 13.7306 8.20991 14.5515 7.98779C15.3724 7.76567 16.2475 7.88001 16.9844 8.30565L17.4527 8.57777C17.8736 8.82097 18.2339 9.15709 18.5064 9.56071C18.7789 9.96433 18.9564 10.4249 19.0255 10.9075Z" fill="white"/>
</g>
<g opacity="0.2">
<path d="M18.6323 13.4225L13.2719 22.7744C13.0621 23.1406 12.7824 23.4618 12.449 23.7195C12.1155 23.9773 11.7348 24.1666 11.3285 24.2765C10.9221 24.3865 10.4982 24.4151 10.0809 24.3606C9.66363 24.3061 9.26111 24.1695 8.89635 23.9588L8.42813 23.6894C7.69132 23.2636 7.15314 22.5613 6.93192 21.7371C6.71071 20.9128 6.82457 20.0341 7.24848 19.2942L7.27298 19.2501C7.94247 19.4046 8.64367 19.3392 9.27339 19.0636C9.90311 18.788 10.4281 18.3167 10.7711 17.7191L16.104 8.41101C16.4132 8.48146 16.71 8.59839 16.9845 8.75785L17.4527 9.02724C18.1895 9.45312 18.7277 10.1554 18.9489 10.9796C19.1701 11.8039 19.0562 12.6826 18.6323 13.4225Z" fill="#2E0052"/>
</g>
<path d="M10.4873 25.2542C9.77759 25.2544 9.08031 25.067 8.46559 24.7108L7.99797 24.4408C7.0628 23.9006 6.37965 23.0095 6.09881 21.9636C5.81797 20.9176 5.96243 19.8025 6.50043 18.8635L11.8596 9.50925C12.9788 7.557 15.4699 6.88246 17.4142 8.00558L17.8822 8.27588C18.8171 8.81613 19.5001 9.70715 19.7808 10.753C20.0615 11.7988 19.917 12.9137 19.3791 13.8526L14.0199 23.2069C13.6625 23.83 13.1477 24.3474 12.5274 24.7069C11.9072 25.0663 11.2035 25.2551 10.4873 25.2542ZM7.99585 19.7267C7.84242 19.9944 7.74301 20.2899 7.70331 20.5962C7.66361 20.9026 7.68439 21.2137 7.76446 21.512C7.84454 21.8103 7.98235 22.0898 8.17001 22.3346C8.35768 22.5794 8.59152 22.7846 8.8582 22.9387L9.32582 23.2087C9.86452 23.519 10.5038 23.6021 11.1034 23.4398C11.7031 23.2775 12.2141 22.883 12.5245 22.3428L17.8837 12.9885C18.1928 12.4477 18.2757 11.8059 18.1141 11.2038C17.9524 10.6018 17.5596 10.0887 17.0216 9.77712L16.5537 9.50651C16.0148 9.19625 15.3754 9.11332 14.7757 9.27594C14.176 9.43856 13.6651 9.83344 13.3551 10.3739L7.99585 19.7267Z" fill="#2E0052"/>
<path d="M68.5472 25.9135L67.772 21.0736C67.6368 20.2311 67.1739 19.4769 66.4851 18.9768C65.7964 18.4768 64.938 18.2719 64.0988 18.407L63.5661 18.4921C62.727 18.6278 61.9759 19.0926 61.4779 19.7842C60.9799 20.4758 60.7758 21.3377 60.9104 22.1803L61.6857 27.0215C61.8209 27.864 62.2839 28.6182 62.9727 29.1182C63.6616 29.6181 64.52 29.823 65.3592 29.6877L65.8915 29.6018C66.7307 29.466 67.4818 29.0013 67.9798 28.3097C68.4778 27.6181 68.6819 26.7562 68.5472 25.9135Z" fill="#698FFF"/>
<path d="M64.8483 30.4315C62.9654 30.4315 61.3027 29.0575 60.9948 27.1329L60.2196 22.2918C59.8778 20.1573 61.329 18.1416 63.456 17.7969L63.9884 17.7109C64.4948 17.6291 65.0124 17.6482 65.5115 17.7672C66.0106 17.8862 66.4814 18.1028 66.8971 18.4046C67.3129 18.7063 67.6653 19.0874 67.9343 19.526C68.2033 19.9646 68.3836 20.4521 68.465 20.9606L69.2402 25.8015C69.582 27.9359 68.1304 29.9517 66.0037 30.2948L65.4711 30.3811C65.2652 30.4145 65.0569 30.4314 64.8483 30.4315ZM64.613 19.0673C64.478 19.0673 64.3433 19.0782 64.2101 19.0998L63.6774 19.1857C63.0217 19.2923 62.4348 19.6557 62.0456 20.1962C61.6564 20.7367 61.4967 21.4102 61.6016 22.0689L62.3768 26.9097C62.4829 27.5681 62.8448 28.1573 63.383 28.5481C63.9213 28.9388 64.5919 29.0992 65.2479 28.9941L65.7805 28.9081C66.4364 28.8014 67.0233 28.4379 67.4125 27.8972C67.8017 27.3565 67.9613 26.6828 67.8564 26.0241L67.0811 21.1829C66.9866 20.5935 66.6864 20.0571 66.2343 19.6694C65.7822 19.2816 65.2075 19.0679 64.613 19.0664V19.0673Z" fill="#2E0052"/>
<path d="M66.2079 29.1623L64.5016 18.5081C64.3664 17.6656 63.9036 16.9115 63.2149 16.4115C62.5262 15.9115 61.6679 15.7065 60.8287 15.8416L60.2958 15.9278C59.4567 16.0636 58.7056 16.5283 58.2076 17.2198C57.7097 17.9114 57.5055 18.7732 57.6401 19.6158L59.3463 30.2699C59.4815 31.1125 59.9444 31.8668 60.6333 32.3668C61.3221 32.8668 62.1806 33.0718 63.0198 32.9365L63.5525 32.8505C64.3916 32.7147 65.1426 32.2499 65.6405 31.5583C66.1384 30.8667 66.3425 30.0049 66.2079 29.1623Z" fill="#606060"/>
<g opacity="0.6">
<path d="M64.009 17.2402C63.5063 17.0621 62.9671 17.0136 62.4409 17.0992L61.908 17.1861C61.0688 17.3216 60.3176 17.7861 59.8193 18.4775C59.3211 19.169 59.1167 20.0307 59.2511 20.8734L60.9573 31.5288C61.0292 31.9822 61.1979 32.4147 61.4519 32.7965C60.9069 32.605 60.4236 32.2693 60.0529 31.8249C59.6822 31.3804 59.4379 30.8437 59.3457 30.2714L57.6392 19.6158C57.5049 18.7731 57.7093 17.9113 58.2075 17.2199C58.7057 16.5284 59.4569 16.0639 60.2961 15.9284L60.8294 15.8422C61.4371 15.7439 62.0601 15.8235 62.624 16.0714C63.1879 16.3194 63.6687 16.7251 64.009 17.2402Z" fill="white"/>
</g>
<g opacity="0.2">
<path d="M63.5528 32.8506L63.0199 32.9368C62.1805 33.0725 61.3219 32.8678 60.6327 32.3679C59.9436 31.8679 59.4805 31.1136 59.3451 30.2709L57.6392 19.6158C57.5049 18.7731 57.7093 17.9113 58.2075 17.2199C58.7057 16.5285 59.4569 16.064 60.2961 15.9285L60.8294 15.8422C60.8345 15.8422 60.8381 15.8404 60.8433 15.8404L62.4043 25.5895C62.5394 26.4292 63 27.1811 63.6854 27.681C64.3708 28.1809 65.2254 28.388 66.0624 28.2573L66.2079 29.1623C66.3426 30.0049 66.1385 30.8667 65.6407 31.5583C65.1428 32.2499 64.3919 32.7147 63.5528 32.8506Z" fill="#2E0052"/>
</g>
<path d="M62.5023 33.8446C61.5369 33.8421 60.6039 33.4951 59.8698 32.8655C59.1357 32.2359 58.6484 31.3648 58.4949 30.4078L56.7883 19.7537C56.6171 18.6841 56.876 17.59 57.5082 16.7122C58.1403 15.8343 59.0939 15.2445 60.1591 15.0726L60.6917 14.9866C61.2191 14.9015 61.758 14.9214 62.2777 15.0454C62.7974 15.1694 63.2877 15.3949 63.7206 15.7091C64.1535 16.0234 64.5205 16.4201 64.8007 16.8768C65.0808 17.3334 65.2687 17.841 65.3534 18.3706L67.0597 29.0247C67.1445 29.5543 67.1246 30.0954 67.0011 30.6173C66.8777 31.1391 66.653 31.6314 66.34 32.0661C66.0271 32.5007 65.6319 32.8692 65.177 33.1505C64.7222 33.4318 64.2167 33.6204 63.6892 33.7055L63.1569 33.7914C62.9405 33.8267 62.7216 33.8445 62.5023 33.8446ZM61.3414 16.6665C61.2153 16.6665 61.0894 16.6767 60.9649 16.6968L60.434 16.7831C60.1303 16.8321 59.8392 16.9406 59.5772 17.1026C59.3153 17.2646 59.0877 17.4768 58.9075 17.7271C58.7272 17.9774 58.5979 18.2609 58.5268 18.5614C58.4557 18.8619 58.4442 19.1736 58.4931 19.4785L60.1993 30.1327C60.2481 30.4376 60.3563 30.73 60.5176 30.993C60.679 31.256 60.8903 31.4845 61.1396 31.6655C61.389 31.8465 61.6713 31.9764 61.9706 32.0477C62.2699 32.1191 62.5803 32.1306 62.8841 32.0816L63.4164 31.9956C63.7202 31.9466 64.0114 31.8381 64.2733 31.6761C64.5353 31.5141 64.7629 31.3019 64.9432 31.0515C65.1235 30.8012 65.2528 30.5177 65.324 30.2171C65.3951 29.9166 65.4065 29.6049 65.3577 29.2999L63.6514 18.6457C63.5631 18.0946 63.2825 17.5929 62.8597 17.2303C62.4369 16.8677 61.8996 16.6679 61.3436 16.6665H61.3414Z" fill="#2E0052"/>
<path d="M20.7708 62.1696C18.3628 66.4048 14.1751 69.9369 9.37663 72.1504C5.69917 68.8822 3.13179 64.5576 1.94791 59.8753C0.764034 55.193 0.967901 50.1621 2.52503 45.5891C2.69502 45.0889 2.91824 44.5608 3.22072 44.1204C3.56251 43.6205 4.00714 43.2293 4.59213 43.1096C5.54431 42.9177 6.50012 43.5746 7.00162 44.4129C7.50312 45.2511 7.6592 46.2406 7.87486 47.1933C8.90326 51.7362 11.5314 55.8658 15.1058 58.8221C16.8028 60.2361 18.7156 61.3664 20.7708 62.1696Z" fill="#43FF4B"/>
<g opacity="0.2">
<path d="M20.7708 62.1695C18.3628 66.4048 14.1751 69.9369 9.37663 72.1504C5.69917 68.8821 3.13179 64.5576 1.94791 59.8753C0.764034 55.193 0.967901 50.1621 2.52503 45.5891C2.69502 45.0889 2.91824 44.5607 3.22072 44.1204C2.97329 45.6155 2.79725 47.121 2.7909 48.6353C2.78032 51.2837 3.32053 53.9991 4.77784 56.2071C6.23516 58.4151 8.70514 60.0396 11.3427 60.0478C12.6896 60.0512 14.0014 59.5923 15.1046 58.822C16.802 60.2362 18.7152 61.3665 20.7708 62.1695Z" fill="#2E0052"/>
</g>
<g opacity="0.6">
<path d="M19.1205 64.6226C19.2189 64.464 19.3136 64.3038 19.4046 64.1418C17.349 63.3388 15.4357 62.2085 13.7383 60.7943C10.1631 57.8377 7.53523 53.7085 6.50773 49.1668C6.29207 48.2143 6.13418 47.223 5.63419 46.3863C5.1342 45.5496 4.17688 44.8915 3.2247 45.0834C3.01045 45.1283 2.8057 45.2105 2.61975 45.3264C2.77583 44.9091 2.97032 44.4848 3.21955 44.1218C3.56135 43.6219 4.00598 43.2308 4.59096 43.1111C5.54315 42.9192 6.49896 43.5761 7.00046 44.4143C7.50196 45.2526 7.65803 46.242 7.8737 47.1948C8.9021 51.7377 11.5303 55.8672 15.1046 58.8235C16.8021 60.2372 18.7154 61.367 20.7708 62.1695C20.282 63.0271 19.7304 63.8471 19.1205 64.6226Z" fill="white"/>
</g>
<path d="M9.37665 72.9594C9.18003 72.9595 8.99019 72.8872 8.84309 72.7562C5.07186 69.4057 2.41767 65.0204 1.16785 60.0739C-0.0480864 55.2619 0.163342 50.0247 1.76312 45.3269C1.98665 44.6709 2.6666 42.6743 4.43123 42.3175C5.82109 42.0372 7.06969 42.958 7.69007 43.9964C8.18431 44.8234 8.3791 45.7242 8.56723 46.5949C8.59748 46.7349 8.62773 46.8746 8.65798 47.0137C10.1041 53.4026 14.9718 59.0555 21.0593 61.4154C21.1673 61.4574 21.265 61.5222 21.3458 61.6056C21.4265 61.6889 21.4884 61.7887 21.5273 61.8983C21.5661 62.0078 21.581 62.1245 21.5709 62.2403C21.5607 62.3561 21.5258 62.4684 21.4686 62.5695C19.0373 66.8472 14.862 70.5106 9.713 72.8865C9.60741 72.9348 9.49268 72.9596 9.37665 72.9594ZM4.93031 43.8846C4.86937 43.8845 4.80858 43.8905 4.74882 43.9025C4.17957 44.018 3.68745 44.6731 3.28667 45.8502C1.78671 50.254 1.58859 55.1647 2.72861 59.6763C3.85472 64.1336 6.19797 68.1034 9.51881 71.19C13.7661 69.1311 17.3746 66.0348 19.5954 62.5567C16.6877 61.2696 14.0384 59.2915 11.8872 56.7944C9.52063 54.0465 7.86126 50.7883 7.08784 47.3721C7.05548 47.2282 7.02402 47.083 6.99256 46.9378C6.82469 46.1609 6.66589 45.4269 6.30837 44.8283C6.01376 44.3341 5.46629 43.8846 4.93031 43.8846Z" fill="#2E0052"/>
<path d="M6.03133 48.1098C5.80372 48.8862 5.8573 49.7185 6.18257 50.459C6.50743 51.191 7.09997 51.7996 7.80836 52.1777C8.49912 51.2623 9.04966 50.2484 9.44171 49.1695C9.55272 48.8633 9.65344 48.5372 9.59476 48.2167C9.48224 47.5865 8.78202 47.2048 8.14501 47.2273C7.508 47.2497 6.92665 47.5711 6.03133 48.1098Z" fill="#DBFF43"/>
<path d="M8.95319 53.4742C8.89932 54.2818 9.13195 55.0824 9.60985 55.7341C10.0853 56.3777 10.7952 56.8427 11.5687 57.0574C12.0453 56.0134 12.3636 54.9036 12.513 53.7649C12.5553 53.442 12.5819 53.1016 12.4567 52.8012C12.2108 52.2111 11.4447 51.9909 10.8276 52.1516C10.2106 52.3122 9.71179 52.7532 8.95319 53.4742Z" fill="#DBFF43"/>
<path d="M12.7849 58.1138C12.7753 58.4328 12.8322 58.7504 12.952 59.0461C13.0718 59.3418 13.2518 59.609 13.4806 59.8306C13.9461 60.2862 14.6215 60.5726 15.3466 60.6531C15.7418 59.7923 15.9949 58.8727 16.0958 57.9303C16.1227 57.6688 16.1342 57.3961 16.0069 57.1711C15.7561 56.7313 15.039 56.6456 14.4724 56.8449C13.9059 57.0441 13.46 57.4532 12.7849 58.1138Z" fill="#DBFF43"/>
<path d="M7.80953 52.9862C7.67785 52.9863 7.54819 52.9537 7.43204 52.8914C6.54489 52.4183 5.84073 51.6711 5.44873 50.7882C5.04702 49.8711 4.97998 48.8412 5.25938 47.8793C5.31701 47.6855 5.44475 47.5203 5.61751 47.4161C6.58542 46.8336 7.28383 46.4491 8.11865 46.4194C9.06781 46.389 10.1894 46.9542 10.3896 48.0737C10.4804 48.5757 10.3515 49.0301 10.2 49.4468C9.78085 50.6017 9.19141 51.6869 8.45137 52.6661C8.37631 52.7656 8.27929 52.8463 8.16792 52.9019C8.05655 52.9574 7.93387 52.9863 7.80953 52.9862ZM6.73575 48.6304C6.6494 49.1375 6.71324 49.6588 6.91935 50.1298C7.08147 50.4851 7.3166 50.8019 7.60929 51.0595C8.04932 50.3808 8.41099 49.6542 8.6873 48.8934C8.73358 48.7658 8.82976 48.5016 8.80436 48.3604C8.77683 48.2055 8.4792 48.0263 8.17552 48.0363C7.80892 48.0485 7.42659 48.2252 6.73575 48.6304Z" fill="#2E0052"/>
<path d="M11.5699 57.866C11.4974 57.8656 11.4252 57.8554 11.3554 57.8356C10.3875 57.5668 9.53788 56.9913 8.96409 56.2144C8.3742 55.4074 8.08623 54.4176 8.15074 53.4187C8.165 53.217 8.25404 53.0281 8.40028 52.8891C9.22028 52.1088 9.81827 51.5831 10.6262 51.3705C11.5478 51.1306 12.7631 51.4413 13.2005 52.4903C13.3962 52.9604 13.3699 53.4318 13.3121 53.8716C13.1527 55.0901 12.812 56.2776 12.3016 57.3946C12.2373 57.5352 12.1342 57.6544 12.0045 57.7379C11.8748 57.8215 11.724 57.8659 11.5699 57.866ZM9.75505 53.829C9.7803 54.3427 9.95532 54.8376 10.2584 55.2522C10.4927 55.5637 10.7901 55.8219 11.131 56.0097C11.4138 55.2511 11.6095 54.4627 11.7145 53.6596C11.732 53.525 11.7686 53.2453 11.7145 53.1129C11.654 52.968 11.3267 52.8569 11.0306 52.934C10.6773 53.0269 10.3409 53.2821 9.75415 53.829H9.75505Z" fill="#2E0052"/>
<path d="M15.3459 61.4615C15.3162 61.4616 15.2865 61.46 15.257 61.4567C14.3339 61.354 13.5027 60.9823 12.9177 60.4095C12.6094 60.1088 12.3668 59.747 12.2054 59.347C12.044 58.9471 11.9672 58.5178 11.98 58.0864C11.9869 57.8781 12.0736 57.6806 12.222 57.5349C12.9479 56.8239 13.4785 56.3389 14.2044 56.0831C15.0549 55.7828 16.2207 55.9219 16.704 56.7704C16.9744 57.2454 16.9209 57.7645 16.8949 58.0138C16.786 59.044 16.5102 60.0494 16.0782 60.9902C16.0139 61.1309 15.9107 61.2501 15.7809 61.3337C15.6511 61.4173 15.5001 61.4616 15.3459 61.4615ZM13.6112 58.4372C13.6667 58.7473 13.8175 59.0322 14.0426 59.2518C14.2507 59.4549 14.5335 59.6162 14.8571 59.7246C15.0803 59.1196 15.2274 58.489 15.2948 57.8474C15.3062 57.7621 15.3099 57.6759 15.306 57.5898C15.2137 57.5498 14.976 57.5252 14.7392 57.6087C14.4095 57.7244 14.1115 57.9589 13.6112 58.4372Z" fill="#2E0052"/>
<path d="M68.579 63.8283C67.497 69.6899 64.4 75.1546 59.9367 79.0812C58.6663 80.2013 57.5532 81.5959 55.5348 81.4726C54.1159 81.3864 53.1919 80.3933 52.3622 79.1447C50.4473 79.8314 48.2486 80.3419 46.0708 80.724C40.3362 81.7293 34.7311 81.8335 34.7311 81.8456C34.7311 81.8335 29.4542 81.7821 23.8983 80.8014C21.801 80.4315 19.6613 79.9298 17.7515 79.2464C16.9221 80.495 15.604 81.7153 13.9286 81.4742C12.2532 81.233 10.8025 80.2013 9.52789 79.0821C6.36947 76.3035 3.89494 72.7534 2.3357 68.8374C1.69005 67.2197 1.20427 65.5423 0.885343 63.8292C0.792181 63.3178 0.72594 62.7426 1.01843 62.3174C1.21141 62.0373 1.52174 61.8876 1.8584 61.8506C2.19863 61.817 2.54101 61.8876 2.84052 62.0531C3.42974 62.3842 3.81751 62.9776 4.17866 63.5465C4.28392 62.5886 4.08217 61.9672 4.04013 61.3382C3.99809 60.7092 4.18562 59.984 4.74852 59.7024C5.34681 59.4048 6.05883 59.7428 6.61629 60.1091C7.96645 60.9918 9.17935 62.07 10.2157 63.3087C10.5067 63.6529 10.7808 64.0097 11.0381 64.3792C11.5523 61.4029 13.8968 59.9718 16.4327 60.3627C16.5186 60.3748 16.6063 60.3909 16.6938 60.4101C16.7068 60.4116 16.7197 60.414 16.7325 60.4174C17.5461 58.248 18.7457 56.2034 20.2363 54.5199C21.3482 53.2644 22.6231 52.2117 24.0245 51.4561C25.5191 50.6528 27.1528 50.1438 28.8377 49.9564C30.8422 49.7292 32.8821 49.9491 34.732 50.6394C37.0241 49.7872 39.6039 49.6481 42.0452 50.1939C42.4118 50.2749 42.7736 50.3705 43.1308 50.4809C43.9302 50.7313 44.7042 51.0574 45.4422 51.4549C47.358 52.4929 48.9812 54.0006 50.1608 55.8377C50.7471 56.7446 51.2201 57.7205 51.5691 58.7433C51.7586 59.2904 51.9127 59.8491 52.0304 60.4161C52.1635 60.3879 52.2969 60.3648 52.4318 60.3475C53.6664 60.1827 54.9212 60.4204 56.0112 61.0254C57.209 61.6935 58.1524 62.8072 58.428 64.378C59.619 62.687 61.1186 61.2381 62.8471 60.1079C63.4067 59.7416 64.1175 59.4036 64.7149 59.7012C65.2778 59.9827 65.462 60.7083 65.4236 61.337C65.3852 61.9657 65.1798 62.5874 65.285 63.5453C65.6462 62.9764 66.0337 62.383 66.6232 62.0519C67.0666 61.8035 67.6558 61.7631 68.0838 61.9939C68.2284 62.0711 68.3528 62.1815 68.4468 62.3161C68.5199 62.4233 68.5738 62.5424 68.6062 62.6681C68.7036 63.0323 68.6473 63.4481 68.579 63.8283Z" fill="#43FF4B"/>
<path d="M68.6352 63.8389C68.3173 65.5522 67.8315 67.2298 67.1849 68.8471C64.2878 68.0389 61.6799 66.3263 59.8315 64.0206C59.65 63.7934 59.4737 63.5574 59.3055 63.3181C60.3418 62.0793 61.5547 61.0011 62.9049 60.1185C63.3662 59.8148 63.9333 59.5302 64.4551 59.6113C64.46 59.6114 64.4649 59.6127 64.4693 59.6149C64.5743 59.6319 64.6762 59.6645 64.7718 59.7115C65.3347 59.9934 65.5207 60.7189 65.4802 61.3476C65.4399 61.9568 65.2488 62.5591 65.3328 63.4693C65.3365 63.4976 65.3383 63.5258 65.3416 63.5556C65.7046 62.987 66.0905 62.3936 66.6798 62.0625C67.0086 61.8795 67.3892 61.8131 67.7602 61.8739C67.7646 61.8758 67.7693 61.877 67.7741 61.8776C68.0669 61.9322 68.3319 62.0783 68.5019 62.3265C68.7946 62.7541 68.7281 63.3281 68.6352 63.8389Z" fill="#DBFF43"/>
<path d="M10.2151 63.3072L10.1906 63.3424C10.0134 63.5924 9.82765 63.8372 9.63467 64.075C7.79141 66.3464 5.20648 68.035 2.33541 68.8365C1.68977 67.2189 1.20398 65.5414 0.885054 63.8284C0.81851 63.4588 0.764065 63.0536 0.851782 62.6961C0.883921 62.5608 0.940401 62.4324 1.01844 62.3174C1.23592 62.0003 1.60766 61.8506 1.99543 61.8418C2.29085 61.8368 2.58235 61.9102 2.84054 62.0544C3.40525 62.3715 3.78425 62.9297 4.133 63.4755C4.14903 63.5001 4.16325 63.5228 4.17868 63.5477C4.28394 62.5898 4.084 61.9684 4.04196 61.3395C3.99992 60.7105 4.18563 59.9852 4.74853 59.7037C4.89526 59.6322 5.05555 59.5932 5.21858 59.5892C5.69558 59.5786 6.19889 59.8355 6.6163 60.1103C7.96606 60.9923 9.17874 62.0696 10.2151 63.3072Z" fill="#DBFF43"/>
<g opacity="0.6">
<path d="M65.334 64.6587C65.2448 64.713 65.1444 64.7459 65.0404 64.7549C64.9365 64.7638 64.8319 64.7486 64.7348 64.7104C64.6376 64.6723 64.5506 64.6121 64.4803 64.5346C64.4101 64.4572 64.3586 64.3645 64.3298 64.2639C63.9366 62.9035 63.6662 62.724 62.6438 62.6846C61.434 62.6354 60.3466 63.4277 59.5362 64.3313C58.7259 65.2348 58.0747 66.2884 57.137 67.0552C56.6498 64.5706 54.4874 62.5102 51.9899 62.1528C49.48 57.9422 46.5089 54.0269 43.132 50.4797C43.9315 50.7301 44.7054 51.0562 45.4435 51.4537C47.3592 52.4917 48.9824 53.9994 50.162 55.8365C50.7483 56.7434 51.2213 57.7193 51.5703 58.7421C51.7598 59.2892 51.9139 59.8479 52.0316 60.4149C52.1647 60.3867 52.2981 60.3636 52.433 60.3463C53.6676 60.1815 54.9224 60.4192 56.0124 61.0242C57.2102 61.6923 58.1536 62.806 58.4292 64.3768C59.6202 62.6858 61.1198 61.2369 62.8483 60.1067C63.4079 59.7404 64.1187 59.4024 64.7161 59.7C65.279 59.9815 65.4632 60.7071 65.4248 61.3358C65.3864 61.9645 65.181 62.5862 65.2862 63.5441C65.6474 62.9752 66.0349 62.3818 66.6244 62.0507C67.0678 61.8023 67.657 61.7619 68.085 61.9927C68.2296 62.0699 68.354 62.1803 68.448 62.3149C68.5211 62.4221 68.575 62.5412 68.6074 62.6669C67.5165 63.33 66.4254 63.994 65.334 64.6587Z" fill="white"/>
</g>
<g opacity="0.6">
<path d="M4.0129 64.8458C4.53799 65.2047 5.25032 64.9126 5.38855 64.29C5.59392 63.3634 5.91818 62.7171 6.76661 62.6837C7.9765 62.6345 9.0654 63.4268 9.87421 64.3304C10.683 65.2339 11.337 66.2884 12.2752 67.0562C12.7628 64.5715 14.9249 62.5111 17.4224 62.1537C19.9323 57.9432 22.9034 54.0278 26.2803 50.4806C25.4809 50.731 24.707 51.0571 23.9691 51.4546C22.0533 52.4926 20.4301 54.0003 19.2506 55.8374C18.6643 56.7443 18.1913 57.7202 17.8422 58.743C17.6527 59.29 17.4987 59.8488 17.3813 60.4159C17.2479 60.3876 17.1145 60.3645 16.9796 60.3472C15.7447 60.1823 14.4898 60.4199 13.3995 61.0251C12.2017 61.6933 11.2583 62.807 10.9831 64.3777C9.79184 62.6868 8.29224 61.2378 6.56365 60.1076C6.00408 59.7413 5.29327 59.4033 4.69588 59.7009C4.13298 59.9825 3.94878 60.708 3.98719 61.3367C4.02561 61.9654 4.23098 62.5871 4.12603 63.545C3.76306 62.9761 3.3771 62.3827 2.78789 62.0516C2.34416 61.8032 1.75494 61.7628 1.32695 61.9936C1.18263 62.0713 1.05874 62.1822 0.965492 62.3174C0.892167 62.4244 0.838113 62.5436 0.805786 62.6694C1.78912 63.2659 2.93943 64.1123 4.0129 64.8458Z" fill="white"/>
</g>
<path d="M46.0723 80.7222C40.3371 81.7281 34.7323 81.8326 34.7323 81.8459C34.7323 81.8338 29.4557 81.7816 23.899 80.8021C21.2284 69.908 23.1797 58.7509 28.8387 49.957C30.8419 49.7298 32.8812 49.9509 34.7323 50.6407C37.0239 49.7882 39.6039 49.6494 42.0458 50.1945C46.7172 57.6193 49.63 68.8791 46.0723 80.7222Z" fill="#DBFF43"/>
<g opacity="0.2">
<path d="M52.0485 70.0496C51.8486 71.6838 51.6205 73.3882 50.6841 74.7373C49.5045 76.4347 47.3696 77.2581 45.3107 77.338C43.2517 77.4179 41.2273 76.859 39.2446 76.285C37.2619 75.711 35.2547 75.1176 33.1951 75.1245C30.753 75.134 28.4022 75.9874 26.0057 76.4399C23.6092 76.8924 20.9145 76.8785 18.9801 75.3833C17.0985 73.9288 16.3789 71.4284 16.0655 69.0661C15.7979 67.0426 15.7456 64.9962 15.9094 62.9616C15.9699 62.2023 16.2234 61.2799 16.4321 60.3609C16.4968 60.0684 16.5582 59.7744 16.6072 59.4874C16.623 59.7957 16.6529 60.1021 16.6931 60.4083C16.8177 61.3403 17.0363 62.2571 17.3456 63.1447C17.5017 63.5902 20.0131 68.0278 20.1604 67.8252C19.3519 68.9346 20.0182 70.6193 21.1706 71.3595C22.3231 72.0996 23.7677 72.1576 25.1355 72.1925C31.3207 72.3492 37.5114 72.5063 43.6952 72.2806C44.8597 72.2384 46.0714 72.1698 47.0886 71.5994C48.1058 71.029 48.8544 69.7996 48.4969 68.6868C50.44 65.7742 51.1045 62.2418 51.5694 58.743C51.7589 59.2901 51.913 59.8489 52.0307 60.4159C52.1638 60.3876 52.2972 60.3645 52.4321 60.3472C52.8271 63.5322 52.4412 66.836 52.0485 70.0496Z" fill="#2E0052"/>
</g>
<path d="M34.7323 82.6532C34.7096 82.6532 34.6872 82.6532 34.6655 82.6504C34.6437 82.6477 34.5935 82.648 34.53 82.6462C30.8171 82.5396 26.992 82.1669 23.7595 81.5969C21.618 81.2191 19.7031 80.7526 18.0576 80.2059C16.8477 81.7648 15.3593 82.4962 13.816 82.2738C11.8224 81.9856 10.1933 80.7413 8.99735 79.6896C5.76785 76.8496 3.20622 73.2008 1.58829 69.1369C0.92208 67.4701 0.421576 65.7413 0.0940765 63.9756C0.012409 63.5322 -0.158185 62.6089 0.353598 61.8588C1.01662 60.8933 2.33872 60.841 3.23495 61.3473C3.17899 60.2673 3.61879 59.3626 4.38858 58.9784C5.51317 58.4202 6.67497 59.1813 7.05669 59.4312C8.42456 60.3252 9.65795 61.4111 10.7193 62.656C11.1361 61.7218 11.7647 60.9552 12.5798 60.401C13.6203 59.6921 14.8919 59.3881 16.218 59.5202C17.8235 55.6148 20.5034 52.4377 23.6419 50.743C25.192 49.9054 26.9579 49.3556 28.7485 49.1537C30.8053 48.9204 32.8673 49.1376 34.7326 49.7824C37.0616 48.979 39.708 48.8442 42.2206 49.4051C43.4772 49.6821 44.6895 50.1325 45.8231 50.7433C49.1941 52.5634 51.649 55.7317 52.6453 59.512C53.9393 59.4054 55.2726 59.6866 56.4042 60.3193C57.4295 60.8927 58.219 61.7106 58.7132 62.6949C59.7834 61.4352 61.0277 60.336 62.4082 59.4306C62.7906 59.1813 63.9539 58.4217 65.073 58.9775C65.8458 59.3641 66.2856 60.2698 66.2294 61.3482C67.1244 60.8441 68.4468 60.8963 69.1077 61.8585C69.6219 62.6065 69.451 63.5325 69.369 63.9775C68.2499 70.045 65.0872 75.6256 60.4658 79.6908C60.2812 79.8533 60.1028 80.0212 59.9104 80.1986C58.7994 81.2333 57.5405 82.4047 55.4855 82.2814C53.8906 82.1843 52.8462 81.1932 52.0492 80.1093C50.3916 80.6587 48.4304 81.1328 46.209 81.5206C42.8818 82.1041 38.8843 82.5038 34.9546 82.6459L34.8034 82.6517C34.781 82.652 34.7568 82.6532 34.7323 82.6532ZM34.5239 82.6258C34.5635 82.6367 34.604 82.6442 34.6449 82.6483C34.6041 82.6438 34.5636 82.6363 34.5239 82.6258ZM33.9268 81.8459C33.9264 82.0067 33.9746 82.1637 34.0651 82.2963C33.9752 82.1634 33.9271 82.0065 33.9268 81.8459ZM17.753 78.4374C17.8449 78.4374 17.936 78.4532 18.0225 78.4842C19.7079 79.0861 21.7317 79.5976 24.0381 80.0045C27.1962 80.5612 30.9387 80.9254 34.5759 81.0302C34.6313 81.0317 34.6836 81.0353 34.7329 81.0408C34.7846 81.0347 34.8397 81.0305 34.8978 81.0283C38.7564 80.8886 42.6755 80.4971 45.9335 79.9259C48.3321 79.5071 50.4037 78.9883 52.0918 78.3839C52.2608 78.3233 52.4451 78.3212 52.6155 78.3778C52.7859 78.4344 52.9326 78.5466 53.0322 78.6964C53.9248 80.0388 54.6655 80.6098 55.5842 80.6654C56.9538 80.7501 57.8158 79.9435 58.8167 79.0114C59.0069 78.834 59.2038 78.6509 59.4053 78.4732C63.7561 74.6465 66.7327 69.3923 67.7868 63.6825C67.8258 63.47 67.9178 62.9716 67.7835 62.7763C67.6734 62.6159 67.2865 62.6071 67.017 62.759C66.5893 62.9986 66.2569 63.521 65.9635 63.9817C65.8738 64.1228 65.7428 64.2325 65.5884 64.2956C65.434 64.3588 65.2638 64.3722 65.1015 64.334C64.9392 64.2959 64.7927 64.2081 64.6822 64.0827C64.5717 63.9574 64.5027 63.8007 64.4847 63.6343C64.4021 62.875 64.4871 62.2931 64.5552 61.8248C64.583 61.6328 64.6093 61.4521 64.6199 61.2863C64.6453 60.8836 64.5325 60.5136 64.3568 60.4259C64.2702 60.383 63.9868 60.3293 63.2863 60.7867C61.6449 61.863 60.22 63.2399 59.0859 64.8455C58.9942 64.9763 58.866 65.0768 58.7174 65.1345C58.5689 65.1921 58.4066 65.2042 58.2512 65.1692C58.0958 65.1342 57.9542 65.0537 57.8443 64.9379C57.7345 64.8221 57.6613 64.6762 57.634 64.5187C57.3681 62.9983 56.3918 62.1643 55.6192 61.7324C54.5759 61.1555 53.3624 60.9696 52.1953 61.2079C51.9863 61.2517 51.7687 61.2104 51.59 61.0932C51.4114 60.9759 51.2864 60.7923 51.2425 60.5826C50.4823 56.946 48.2283 53.8788 45.0587 52.1677C44.0557 51.6269 42.9829 51.2283 41.871 50.9832C39.5549 50.4669 37.1191 50.6136 35.0109 51.3984C34.8302 51.4657 34.6314 51.4657 34.4507 51.3984C32.7484 50.7639 30.8386 50.5432 28.9276 50.7606C27.339 50.9401 25.7746 51.4266 24.4032 52.1674C21.4389 53.767 18.9184 56.8776 17.4835 60.7016C17.4157 60.882 17.2859 61.0322 17.1176 61.1251C16.9493 61.2179 16.7535 61.2474 16.5655 61.2082C15.4297 60.9698 14.3351 61.1584 13.483 61.7391C12.6143 62.331 12.0429 63.292 11.8303 64.5178C11.8031 64.6753 11.7299 64.8213 11.6201 64.9371C11.5103 65.053 11.3687 65.1335 11.2132 65.1685C11.0578 65.2035 10.8955 65.1915 10.7469 65.1338C10.5983 65.0762 10.4701 64.9757 10.3784 64.8448C10.1286 64.4892 9.86635 64.1484 9.59897 63.832C8.61422 62.6524 7.46064 61.626 6.17589 60.7864C5.47657 60.3287 5.19255 60.3824 5.10302 60.4271C4.93001 60.5136 4.81718 60.8827 4.84259 61.2863C4.85348 61.4479 4.87949 61.6267 4.90702 61.8159C4.97538 62.2864 5.06067 62.8716 4.9778 63.6343C4.9597 63.8006 4.89066 63.9572 4.78018 64.0825C4.6697 64.2077 4.52323 64.2955 4.36098 64.3337C4.19872 64.3718 4.02868 64.3585 3.87429 64.2955C3.7199 64.2325 3.58878 64.123 3.49901 63.982C3.20622 63.5195 2.8735 62.9968 2.45003 62.7584C2.18356 62.6065 1.79004 62.6168 1.68206 62.7748C1.54776 62.9713 1.63971 63.4687 1.67873 63.681C1.987 65.3419 2.45792 66.9682 3.08462 68.5361C4.60848 72.3647 7.02039 75.8006 10.0593 78.4726C11.0877 79.3777 12.4715 80.4467 14.0444 80.6724C15.4678 80.8774 16.5601 79.5854 17.0843 78.797C17.1577 78.6865 17.2572 78.5959 17.3738 78.5332C17.4905 78.4705 17.6207 78.4376 17.753 78.4374Z" fill="#2E0052"/>
<path d="M11.4546 63.5653C12.0036 64.4853 12.5435 65.4204 13.0405 66.3792C13.5375 67.338 13.9912 68.3108 14.4319 69.2811C14.4775 69.3815 14.4832 69.4956 14.4478 69.6001C14.4123 69.7046 14.3384 69.7915 14.2412 69.843C14.144 69.8945 14.0309 69.9067 13.925 69.8771C13.8191 69.8475 13.7285 69.7784 13.6718 69.6839C13.1234 68.7761 12.5708 67.8792 11.9818 67.0158C11.3929 66.1523 10.7683 65.312 10.1256 64.4774C9.99469 64.3074 9.93641 64.0922 9.96355 63.8791C9.99069 63.666 10.101 63.4725 10.2703 63.341C10.4396 63.2096 10.6539 63.1511 10.8661 63.1784C11.0784 63.2056 11.2711 63.3164 11.402 63.4864C11.4208 63.5118 11.4384 63.5381 11.4546 63.5653Z" fill="#2E0052"/>
<path d="M59.0922 64.779C58.451 65.6145 57.8267 66.4545 57.2405 67.3201C56.6543 68.1857 56.1017 69.0816 55.5551 69.9903C55.4967 70.0863 55.4041 70.1563 55.2961 70.1861C55.188 70.2159 55.0728 70.2033 54.9737 70.1508C54.8747 70.0983 54.7993 70.0098 54.7629 69.9034C54.7265 69.7971 54.7318 69.6808 54.7778 69.5782C55.2188 68.6088 55.6713 67.6345 56.1725 66.6784C56.6737 65.7223 57.2121 64.786 57.7623 63.8672C57.8158 63.774 57.8873 63.6924 57.9726 63.6273C58.0579 63.5621 58.1553 63.5147 58.2591 63.4877C58.3629 63.4608 58.471 63.4549 58.577 63.4703C58.6831 63.4858 58.785 63.5223 58.8769 63.5778C58.9687 63.6333 59.0487 63.7066 59.112 63.7934C59.1753 63.8803 59.2207 63.9789 59.2457 64.0836C59.2706 64.1883 59.2745 64.2969 59.2571 64.4031C59.2398 64.5093 59.2015 64.611 59.1446 64.7021C59.1285 64.7287 59.1111 64.7543 59.0922 64.779Z" fill="#2E0052"/>
<path d="M50.9031 69.6536C50.8768 69.6921 50.8508 69.731 50.8226 69.7681C50.7924 69.8121 50.7576 69.8543 50.7261 69.8983C50.6874 69.9494 50.6472 69.9986 50.6052 70.0502C50.5701 70.0924 50.535 70.1365 50.4981 70.179C50.5491 70.5271 50.5761 70.8783 50.5788 71.2301C50.5788 73.2112 49.5371 73.7324 48.2165 73.9939C46.6851 74.2953 45.1205 74.3912 43.5639 74.2791C42.9447 74.235 42.2678 74.1272 41.8398 73.6911C41.8117 73.6628 41.7836 73.6303 41.7572 73.6C41.531 73.3266 41.4245 72.9783 41.354 72.6244C41.3347 72.5364 41.319 72.4465 41.3032 72.3569C40.9593 70.4209 40.721 68.4674 40.5894 66.5053C40.5718 66.2447 40.5591 65.9787 40.5591 65.7129C40.5591 65.0472 40.6499 64.3887 40.9995 63.8375C41.6765 62.7794 43.0585 62.4869 44.1701 62.3478C43.8283 60.8405 42.7391 56.2709 42.1184 54.8568C42.1184 54.8568 49.1542 54.8641 51.2273 60.8016C51.2464 60.8581 51.2676 60.9161 51.2851 60.9744C51.2955 60.9997 51.3043 61.0255 51.3114 61.0519L51.678 60.9848C52.1853 63.8664 52.6937 67.0878 50.9031 69.6536Z" fill="#43FF4B"/>
<g opacity="0.2">
<path d="M50.9031 69.6535C50.8768 69.6921 50.8508 69.7309 50.8227 69.768C50.7924 69.812 50.7576 69.8542 50.7262 69.8983C50.6875 69.9493 50.6472 69.9985 50.6052 70.0501C50.5701 70.0923 50.535 70.1364 50.4981 70.1789C50.5491 70.527 50.5761 70.8782 50.5789 71.23C50.5789 73.2111 49.5372 73.7323 48.2166 73.9938C46.6851 74.2952 45.1205 74.3912 43.5639 74.279C42.9448 74.2349 42.2678 74.1271 41.8398 73.691C41.8117 73.6628 41.7836 73.6303 41.7573 73.5999C41.531 73.3265 41.4245 72.9782 41.3541 72.6244C42.1363 72.6086 42.9172 72.5863 43.697 72.5576C44.8615 72.515 46.0732 72.4464 47.0905 71.876C48.1077 71.3057 48.8563 70.0762 48.4988 68.9635C50.0647 66.6161 50.7997 63.8675 51.2694 61.0588C51.2749 61.0306 51.28 61.0023 51.2836 60.9744C51.294 60.9996 51.3028 61.0255 51.3099 61.0518L51.6765 60.9847C52.1853 63.8663 52.6938 67.0877 50.9031 69.6535Z" fill="#2E0052"/>
</g>
<path d="M44.8264 74.857C44.3864 74.857 43.9465 74.8412 43.5067 74.8096C42.7291 74.7529 41.7569 74.5913 41.1356 73.8378C40.7019 73.3124 40.5854 72.656 40.5086 72.2217C40.1596 70.2563 39.9173 68.2733 39.7827 66.2815C39.7143 65.2662 39.6938 64.1008 40.3181 63.1229C41.1707 61.7881 42.7681 61.43 44.0666 61.2669C44.1715 61.2537 44.278 61.2614 44.38 61.2896C44.4819 61.3177 44.5774 61.3657 44.6608 61.4309C44.7443 61.4961 44.8142 61.5771 44.8665 61.6694C44.9188 61.7617 44.9524 61.8634 44.9655 61.9688C44.9787 62.0741 44.971 62.1811 44.943 62.2834C44.915 62.3858 44.8671 62.4817 44.8022 62.5655C44.7373 62.6493 44.6566 62.7194 44.5647 62.7719C44.4728 62.8244 44.3715 62.8582 44.2665 62.8714C43.3177 62.9905 42.1653 63.2262 41.6734 63.9951C41.3141 64.5573 41.3362 65.3782 41.3894 66.1706C41.5196 68.1039 41.7544 70.0286 42.0927 71.9362C42.1553 72.2901 42.2242 72.6223 42.3743 72.8046C42.6072 73.0867 43.1631 73.1611 43.6214 73.1945C45.1062 73.3018 46.5986 73.2099 48.0592 72.9212C49.264 72.6831 50.0292 72.352 49.6992 70.0126C49.6832 69.8985 49.6916 69.7823 49.7239 69.6718C49.7562 69.5613 49.8116 69.459 49.8865 69.3717C51.792 67.1516 52.3462 63.7835 51.3011 60.7889C51.2305 60.5865 51.2428 60.3642 51.3354 60.171C51.428 59.9777 51.5932 59.8293 51.7948 59.7584C51.9963 59.6875 52.2177 59.6998 52.4101 59.7928C52.6026 59.8858 52.7504 60.0517 52.8211 60.254C54.0104 63.6611 53.426 67.4997 51.3389 70.1459C51.6747 73.4159 49.9412 74.1974 48.3714 74.5078C47.2038 74.7392 46.0165 74.8562 44.8264 74.857Z" fill="#26004F"/>
<path d="M52.855 60.3824C53.007 61.2185 53.1134 62.0622 53.1738 62.9099C53.23 63.7658 53.2285 64.6359 53.1314 65.5103C53.0343 66.3846 52.8386 67.2621 52.5062 68.103C52.1743 68.9523 51.7022 69.7393 51.1097 70.431L51.2975 69.7883C51.3689 70.3578 51.4149 70.9458 51.3438 71.5802C51.3338 71.6595 51.3275 71.7375 51.3136 71.818L51.2612 72.061C51.2334 72.2217 51.1659 72.3899 51.11 72.553C50.9715 72.8789 50.7882 73.2114 50.5205 73.4784C50.2686 73.7357 49.9734 73.9463 49.6484 74.1004C49.36 74.2344 49.059 74.3392 48.7498 74.4132C48.6046 74.4503 48.4606 74.4785 48.3218 74.5071C48.183 74.5356 48.0496 74.5578 47.9147 74.58C47.6424 74.6267 47.3702 74.665 47.0965 74.699C46.0018 74.8326 44.8974 74.8673 43.7965 74.8026C43.2602 74.7649 42.6383 74.7418 41.9669 74.4317C41.6037 74.2647 41.2907 74.0047 41.0594 73.6776C40.8259 73.3396 40.7164 72.9897 40.6435 72.6857C40.5718 72.3747 40.5365 72.1187 40.4902 71.8536L40.3653 71.0578C40.2858 70.5265 40.2141 69.9943 40.1502 69.4612C40.0222 68.395 39.9255 67.3258 39.8601 66.2535C39.8299 65.7095 39.8027 65.1276 39.9058 64.5044C39.958 64.1797 40.0522 63.8632 40.1859 63.5629C40.3311 63.2498 40.5261 62.9626 40.7633 62.7125C41.2415 62.2196 41.8304 61.9229 42.3967 61.7321C42.9629 61.5414 43.534 61.4491 44.0805 61.3829L43.4955 62.2241C43.3939 61.7099 43.2956 61.1949 43.2136 60.6767C43.1317 60.1586 43.0561 59.6393 43.0101 59.1154C42.9986 58.9866 43.0344 58.8581 43.1109 58.7541C43.1874 58.6502 43.2991 58.5779 43.4251 58.5511C43.551 58.5243 43.6823 58.5447 43.7943 58.6086C43.9062 58.6724 43.9909 58.7753 44.0324 58.8976L44.0379 58.9146C44.2061 59.409 44.3464 59.9077 44.4771 60.4086C44.6077 60.9094 44.7251 61.4108 44.8379 61.9165C44.8578 62.0053 44.86 62.0973 44.8445 62.187C44.829 62.2767 44.7961 62.3625 44.7475 62.4395C44.699 62.5164 44.6358 62.583 44.5617 62.6354C44.4875 62.6878 44.4038 62.7251 44.3152 62.745C44.295 62.7496 44.275 62.7532 44.2548 62.7559H44.252C43.753 62.8218 43.2753 62.9132 42.8443 63.0596C42.4133 63.206 42.0449 63.4198 41.7857 63.6926C41.6601 63.8289 41.5571 63.9846 41.4805 64.1536C41.4024 64.3393 41.3481 64.5342 41.319 64.7337C41.2518 65.1589 41.2709 65.6448 41.3075 66.1551C41.3831 67.1964 41.4893 68.2354 41.6263 69.272C41.6946 69.7899 41.7704 70.3063 41.8537 70.8209L41.9841 71.5933C42.0313 71.8493 42.0748 72.1175 42.1256 72.3222C42.1771 72.5311 42.243 72.6912 42.3147 72.7884C42.3939 72.8931 42.4996 72.9746 42.6208 73.0244C42.7645 73.0918 42.9575 73.141 43.1716 73.1735C43.3858 73.206 43.6253 73.2221 43.8821 73.2363C44.8893 73.2896 45.8991 73.252 46.8996 73.124C47.1494 73.0915 47.3987 73.0547 47.6467 73.0107L48.0181 72.9418C48.1391 72.9165 48.2525 72.8935 48.3626 72.8643C48.5667 72.815 48.7655 72.7457 48.9561 72.6575C49.109 72.5849 49.248 72.486 49.3668 72.3653C49.4785 72.2587 49.5483 72.1147 49.6194 71.958C49.6436 71.869 49.6832 71.7925 49.6971 71.6905L49.7274 71.5462C49.7362 71.4964 49.7386 71.4417 49.7452 71.3898C49.7909 70.9692 49.7585 70.4926 49.6947 70.0131C49.6797 69.8987 49.6886 69.7824 49.7209 69.6717C49.7532 69.561 49.8082 69.4583 49.8823 69.3701C50.3537 68.8126 50.7308 68.1812 50.9987 67.5011C51.2709 66.8171 51.4373 66.0819 51.5223 65.3265C51.6913 63.811 51.5413 62.2314 51.2661 60.6634C51.2313 60.4533 51.2805 60.2381 51.4029 60.0642C51.5253 59.8904 51.7111 59.7721 51.9199 59.7349C52.1286 59.6978 52.3436 59.7448 52.518 59.8658C52.6925 59.9868 52.8124 60.172 52.8516 60.3812L52.855 60.3824Z" fill="#2E0052"/>
<path d="M44.0497 61.2544C44.4516 61.2265 44.8718 61.1776 45.3098 61.1369C45.7477 61.0962 46.206 61.0622 46.6948 61.0925C47.1787 61.1229 47.7211 61.2307 48.1941 61.5417C48.3068 61.6232 48.4149 61.7108 48.5181 61.8041C48.6088 61.9071 48.7065 62.0055 48.7818 62.1145C48.8511 62.226 48.9285 62.3356 48.9854 62.4486L49.1366 62.793C49.184 62.8988 49.1888 63.0189 49.15 63.1282C49.1111 63.2375 49.0317 63.3274 48.9283 63.3792C48.8249 63.431 48.7055 63.4406 48.5952 63.406C48.4849 63.3714 48.3923 63.2953 48.3366 63.1936L48.3145 63.1535C48.1385 62.8331 47.915 62.5904 47.6473 62.4708C47.3796 62.3511 47.0517 62.3216 46.6887 62.3493C46.3258 62.3769 45.9377 62.4598 45.5363 62.5546C45.1349 62.6493 44.7178 62.759 44.2771 62.8531H44.2735C44.1698 62.8753 44.0627 62.8767 43.9585 62.8573C43.8542 62.838 43.7548 62.7981 43.6658 62.7402C43.5769 62.6822 43.5002 62.6072 43.4401 62.5195C43.3801 62.4317 43.3378 62.333 43.3157 62.2289C43.2936 62.1247 43.2922 62.0172 43.3115 61.9125C43.3308 61.8079 43.3705 61.708 43.4282 61.6187C43.4859 61.5294 43.5606 61.4524 43.648 61.3921C43.7354 61.3318 43.8337 61.2893 43.9374 61.2672C43.9745 61.2606 44.012 61.2563 44.0497 61.2544Z" fill="#2E0052"/>
<path d="M28.1663 65.4362C28.1663 65.7002 28.152 65.9662 28.1345 66.2259C28.003 68.1885 27.7648 70.1425 27.421 72.079C27.4104 72.1355 27.4016 72.1917 27.3907 72.2482C27.3154 72.6339 27.212 73.0211 26.9673 73.3224C26.5438 73.8329 25.8179 73.9544 25.1573 74.0021C23.6013 74.1142 22.0373 74.0183 20.5065 73.7169C19.8032 73.5775 19.1807 73.3646 18.7521 72.8996C18.3734 72.4893 18.1454 71.8819 18.1454 70.9537C18.148 70.6013 18.175 70.2495 18.2261 69.9008C18.142 69.8039 18.0631 69.7055 17.9878 69.605C17.9648 69.5746 17.9421 69.5442 17.9191 69.5139C17.8562 69.4276 17.7966 69.3413 17.7376 69.2533C17.7376 69.2515 17.7376 69.2496 17.7358 69.2496C16.5416 67.4307 16.4715 65.2382 16.8713 63.1499C16.9188 62.8013 16.9748 62.4544 17.0326 62.1109C17.1169 61.618 17.2062 61.1302 17.2906 60.6531L17.5377 60.7008C17.5431 60.685 17.5483 60.6704 17.5534 60.6531C19.6266 54.7156 26.6064 54.5789 26.6064 54.5789C25.9854 55.9948 24.898 60.5644 24.5544 62.0717C25.5278 62.1932 26.708 62.4326 27.4409 63.1985C27.547 63.3107 27.6422 63.4327 27.7253 63.563C28.0767 64.1121 28.1663 64.7705 28.1663 65.4362Z" fill="#43FF4B"/>
<g opacity="0.2">
<path d="M27.391 72.2487C27.3157 72.6345 27.2123 73.0217 26.9676 73.323C26.5441 73.8335 25.8182 73.955 25.1576 74.0027C23.6016 74.1148 22.0376 74.0189 20.5068 73.7175C19.8035 73.5781 19.181 73.3652 18.7524 72.9002C18.3737 72.4899 18.1457 71.8825 18.1457 70.9543C18.1484 70.6019 18.1753 70.2501 18.2264 69.9014C18.1423 69.8045 18.0634 69.7061 17.9881 69.6056C17.9651 69.5752 17.9424 69.5448 17.9194 69.5144C17.8565 69.4282 17.7969 69.3419 17.7379 69.2539C17.7379 69.252 17.7379 69.2502 17.7361 69.2502C16.5419 67.4313 16.4718 65.2388 16.8716 63.1505C16.9191 62.8018 16.9751 62.455 17.0329 62.1115C17.0434 62.1592 17.0558 62.2048 17.0698 62.2506C17.1523 62.5543 17.2452 62.8529 17.3468 63.145C17.5029 63.5906 20.0143 68.0281 20.1616 67.8255C19.3531 68.935 20.0195 70.6196 21.1719 71.3598C22.3243 72.0999 23.7677 72.1576 25.1355 72.1926C25.888 72.212 26.6399 72.2307 27.391 72.2487Z" fill="#2E0052"/>
</g>
<path d="M23.8954 74.857C22.7054 74.8572 21.5182 74.7412 20.3507 74.5104C18.7806 74.2 17.0471 73.4186 17.3828 70.1486C15.2958 67.5023 14.7102 63.6637 15.9007 60.2567C15.9357 60.1565 15.99 60.0642 16.0605 59.9851C16.131 59.9059 16.2163 59.8415 16.3116 59.7955C16.4069 59.7495 16.5103 59.7227 16.6159 59.7168C16.7215 59.7109 16.8272 59.726 16.927 59.7611C17.0268 59.7962 17.1187 59.8507 17.1976 59.9215C17.2764 59.9923 17.3405 60.078 17.3864 60.1737C17.4322 60.2694 17.4588 60.3732 17.4647 60.4792C17.4706 60.5852 17.4556 60.6914 17.4206 60.7916C16.3756 63.7852 16.9306 67.1543 18.8353 69.3744C18.9102 69.4617 18.9656 69.564 18.9979 69.6745C19.0302 69.785 19.0386 69.9012 19.0225 70.0152C18.6925 72.3538 19.4578 72.6858 20.6628 72.9239C22.1235 73.2126 23.6159 73.3045 25.1007 73.1972C25.5587 73.1638 26.1146 73.0894 26.3475 72.8072C26.4987 72.625 26.5665 72.2928 26.6291 71.9392C26.9668 70.0318 27.2011 68.1074 27.3308 66.1745C27.3841 65.3818 27.4062 64.5609 27.0468 63.9984C26.555 63.2288 25.4026 62.9932 24.4537 62.8747C24.3488 62.8615 24.2475 62.8277 24.1556 62.7752C24.0637 62.7227 23.983 62.6526 23.918 62.5688C23.8531 62.4849 23.8053 62.3891 23.7773 62.2867C23.7493 62.1844 23.7416 62.0774 23.7547 61.9721C23.7678 61.8667 23.8015 61.765 23.8538 61.6727C23.9061 61.5804 23.9759 61.4994 24.0594 61.4342C24.1429 61.369 24.2383 61.321 24.3403 61.2929C24.4423 61.2647 24.5487 61.257 24.6537 61.2702C25.951 61.4333 27.5495 61.7914 28.4022 63.1259C29.0265 64.1032 29.0071 65.2686 28.9376 66.2845C28.803 68.2764 28.5606 70.2595 28.2116 72.225C28.1348 72.659 28.0184 73.3153 27.5846 73.8408C26.9633 74.594 25.9912 74.7555 25.2138 74.8126C24.7753 74.8424 24.3358 74.8572 23.8954 74.857Z" fill="#26004F"/>
<path d="M17.4526 60.6658C17.1765 62.2336 17.0256 63.8132 17.1937 65.3293C17.2781 66.0849 17.4454 66.8205 17.7164 67.5051C17.9836 68.1862 18.3618 68.8179 18.8355 69.3744C18.9093 69.4604 18.9641 69.561 18.9966 69.6697C19.029 69.7784 19.0384 69.8927 19.024 70.0052V70.0152C18.9614 70.4942 18.9305 70.9701 18.9777 71.3898C18.9844 71.4415 18.9874 71.4958 18.9959 71.5459L19.0261 71.6896C19.0406 71.791 19.0799 71.8679 19.1044 71.9559C19.1758 72.112 19.2448 72.256 19.3564 72.3605C19.4742 72.4803 19.6122 72.5781 19.7641 72.6493C19.9534 72.7371 20.151 72.8055 20.354 72.8537C20.4625 72.8841 20.5784 72.905 20.6964 72.9302L21.0669 72.998C21.3143 73.0414 21.5629 73.0769 21.8122 73.1088C22.8099 73.2342 23.8168 73.2696 24.8209 73.2145C25.0756 73.199 25.3169 73.1841 25.5299 73.1504C25.7172 73.1259 25.9003 73.076 26.0743 73.0022C26.2183 72.9357 26.3045 72.8634 26.3689 72.7769C26.4334 72.6903 26.499 72.5366 26.5483 72.3319C26.5979 72.1342 26.639 71.8679 26.685 71.6115L26.8111 70.8407C26.8918 70.3262 26.9646 69.8105 27.0295 69.2936C27.1598 68.261 27.2601 67.2245 27.3305 66.1842C27.3656 65.6731 27.3807 65.1941 27.3178 64.7781C27.2901 64.5857 27.2383 64.3976 27.1635 64.2183C27.1298 64.1392 27.0893 64.0632 27.0425 63.9912C27.0227 63.9697 27.0047 63.9467 26.9887 63.9222C26.9693 63.8976 26.9336 63.8709 26.9085 63.8438C26.7632 63.7156 26.6016 63.6071 26.4279 63.5213C26.2261 63.4158 26.0173 63.3245 25.803 63.248C25.5828 63.1647 25.3493 63.0961 25.1167 63.0299C24.8841 62.9637 24.6327 62.9084 24.421 62.868H24.4189L24.3148 62.8477C24.2218 62.8295 24.1332 62.793 24.0541 62.7404C23.9751 62.6878 23.9072 62.6201 23.8542 62.5411C23.8012 62.4622 23.7642 62.3735 23.7454 62.2802C23.7266 62.1869 23.7262 62.0907 23.7444 61.9973C23.7501 61.9691 23.7573 61.9412 23.7658 61.9138C23.8514 61.6477 23.9374 61.3999 24.0266 61.146L24.2988 60.3931C24.4845 59.8936 24.6775 59.3975 24.8777 58.9049C24.918 58.806 24.993 58.7253 25.0885 58.6782C25.184 58.631 25.2934 58.6207 25.396 58.6491C25.4986 58.6775 25.5873 58.7427 25.6452 58.8323C25.7032 58.9219 25.7264 59.0298 25.7104 59.1354V59.1373C25.6324 59.6532 25.5626 60.1695 25.5011 60.6862L25.4152 61.4606C25.3895 61.7167 25.3638 61.98 25.3457 62.2266L24.6929 61.2726H24.6975C24.9999 61.3291 25.2616 61.3914 25.5395 61.467C25.8175 61.5426 26.0858 61.6249 26.3586 61.7273C26.6401 61.8288 26.9143 61.9495 27.1793 62.0887C27.4769 62.2396 27.7534 62.4294 28.0014 62.6533C28.0688 62.7201 28.136 62.7778 28.2007 62.8547C28.2654 62.9315 28.328 63.0165 28.3882 63.0995C28.4859 63.2483 28.5705 63.4054 28.6411 63.569C28.7718 63.8772 28.8627 64.201 28.9115 64.5324C29.0047 65.1641 28.9741 65.7493 28.939 66.2918C28.8668 67.362 28.7634 68.4299 28.6287 69.4953C28.5615 70.0276 28.4866 70.5589 28.404 71.0892L28.2739 71.8834C28.2261 72.1473 28.1898 72.4045 28.113 72.7201C28.0368 73.0271 27.9182 73.384 27.6747 73.7241C27.4312 74.0643 27.0794 74.3215 26.7446 74.4716C26.4351 74.6078 26.1084 74.7005 25.7737 74.747C25.4657 74.7944 25.1805 74.8105 24.9101 74.8272C23.8099 74.8874 22.7065 74.8487 21.6132 74.7115C21.3409 74.6766 21.0687 74.6374 20.7965 74.59C20.6607 74.5678 20.5243 74.5414 20.3903 74.5159C20.2563 74.4904 20.1074 74.4588 19.9617 74.4202C19.6522 74.3451 19.3511 74.2388 19.063 74.1029C18.7382 73.9472 18.4437 73.7348 18.1931 73.4754C17.9257 73.2078 17.7448 72.8734 17.6078 72.5476C17.5531 72.3842 17.4868 72.2162 17.4596 72.0556L17.4079 71.8126C17.3943 71.7324 17.3879 71.6547 17.3776 71.5751C17.3087 70.9431 17.3562 70.3563 17.4291 69.7881L17.6163 70.4289C17.0259 69.736 16.5546 68.9493 16.2216 68.1009C15.8889 67.2606 15.6929 66.3823 15.5955 65.5094C15.4981 64.6365 15.496 63.7652 15.5516 62.9096C15.6115 62.0619 15.7175 61.218 15.8692 60.3819C15.9079 60.172 16.0276 59.986 16.2022 59.8645C16.3769 59.7429 16.5923 59.6956 16.8016 59.7329C17.0109 59.7701 17.197 59.889 17.3193 60.0635C17.4417 60.2379 17.4904 60.4539 17.4548 60.6643L17.4526 60.6658Z" fill="#2E0052"/>
<path d="M24.4437 62.8544C24.0036 62.7575 23.5877 62.6457 23.186 62.5479C22.7844 62.4501 22.3963 62.3657 22.0321 62.3353C21.6679 62.305 21.3364 62.3296 21.0618 62.4511C20.7871 62.5725 20.5582 62.8179 20.3776 63.1417L20.3579 63.1772C20.3056 63.2704 20.2196 63.3399 20.1178 63.3714C20.0159 63.4029 19.9059 63.3939 19.8104 63.3464C19.715 63.2988 19.6413 63.2163 19.6046 63.1159C19.5679 63.0154 19.571 62.9046 19.6132 62.8064L19.7614 62.4641C19.8168 62.3511 19.8927 62.2424 19.9608 62.1315C20.0349 62.0234 20.1317 61.9256 20.2203 61.8233C20.3219 61.7304 20.4284 61.6431 20.5394 61.5618C21.0058 61.2514 21.5451 61.1415 22.0267 61.1081C22.5139 61.0749 22.9719 61.108 23.4105 61.1445C23.8491 61.1809 24.2695 61.2289 24.6718 61.2541C24.8856 61.2677 25.0852 61.3659 25.2269 61.5273C25.3685 61.6886 25.4405 61.8999 25.4271 62.1145C25.4136 62.3292 25.3157 62.5297 25.155 62.6719C24.9943 62.8141 24.7839 62.8864 24.5702 62.8729C24.5306 62.8705 24.4913 62.8651 24.4525 62.8568L24.4437 62.8544Z" fill="#2E0052"/>
<path d="M44.7962 73.5274C43.9299 73.6242 43.0827 73.7317 42.2321 73.7494C40.5749 73.7864 38.7967 73.429 37.6409 72.2332C34.9649 72.0079 32.5201 72.0079 30.0737 72.0079C29.0389 73.2668 27.2764 73.8532 25.5971 73.8551C25.1949 73.8575 24.7933 73.8822 24.3938 73.9289C22.6788 74.1156 20.4832 72.6645 20.6901 70.9443C20.8413 69.6763 20.9795 68.4235 21.2043 67.2199C21.2043 67.2199 21.2061 67.2199 21.2043 67.2181C21.413 66.1035 21.6952 65.0292 22.1338 64.0221C22.6177 62.9075 24.9186 62.1695 26.1164 62.3405C26.8215 62.4425 27.5474 62.5871 28.27 62.756C29.1802 62.9686 30.3973 63.4621 30.7709 64.3231C33.5575 64.3972 34.9377 64.2688 37.8067 64.3231C38.5048 63.3986 39.6185 62.9971 40.9004 62.8283C41.6332 62.7314 42.8471 62.7138 43.9922 62.7402C44.6282 62.757 45.2378 62.9986 45.7137 63.4225C46.1896 63.8465 46.5012 64.4255 46.5935 65.0575C46.7373 66.019 46.8595 66.9981 46.9601 67.9947C47.0529 68.8788 47.1283 69.7732 47.1878 70.6731C47.2871 72.1136 46.2242 73.3688 44.7962 73.5274Z" fill="#C2C2C2"/>
<g opacity="0.6">
<path d="M47.1252 71.4591C47.0776 70.8517 47.0226 70.2476 46.9603 69.6468C46.8584 68.6522 46.7374 67.6727 46.5937 66.7097C46.5014 66.0777 46.1898 65.4987 45.7139 65.0748C45.238 64.6509 44.6284 64.4092 43.9925 64.3924C42.8473 64.3659 41.6332 64.3836 40.9006 64.4804C39.6187 64.6496 38.505 65.0511 37.8069 65.9756C34.938 65.9209 33.5578 66.0494 30.7711 65.9756C30.3976 65.1143 29.1804 64.6214 28.2703 64.4082C27.5477 64.2393 26.8217 64.0947 26.1167 63.9927C24.9189 63.822 22.618 64.5597 22.134 65.6743C21.6954 66.6817 21.4132 67.7556 21.2045 68.8703V68.8721C21.0273 69.8248 20.902 70.8055 20.7853 71.8023C20.6889 71.5269 20.6565 71.233 20.6906 70.9431C20.8418 69.6751 20.9801 68.4223 21.2048 67.2187V67.2169C21.4135 66.1023 21.6957 65.028 22.1343 64.0209C22.6183 62.9063 24.9192 62.1683 26.117 62.3393C26.822 62.4413 27.548 62.5859 28.2706 62.7548C29.1807 62.9674 30.3979 63.4609 30.7714 64.3219C33.5581 64.396 34.9383 64.2675 37.8072 64.3219C38.5053 63.3974 39.619 62.9959 40.9009 62.827C41.6338 62.7302 42.8476 62.7125 43.9928 62.739C44.6287 62.7557 45.2384 62.9974 45.7143 63.4213C46.1901 63.8453 46.5017 64.4243 46.594 65.0563C46.7378 66.0178 46.86 66.9969 46.9606 67.9934C47.0535 68.8775 47.1288 69.772 47.1884 70.6719C47.2074 70.936 47.1861 71.2015 47.1252 71.4591Z" fill="white"/>
</g>
<g opacity="0.2">
<path d="M44.7962 73.5274C43.9299 73.6242 43.0827 73.7318 42.2321 73.7494C40.5749 73.7864 38.7967 73.429 37.6409 72.2333C34.9649 72.0079 32.5201 72.0079 30.0737 72.0079C29.0389 73.2668 27.2764 73.8532 25.5971 73.8551C25.1949 73.8576 24.7933 73.8822 24.3938 73.9289C22.6788 74.1156 20.4832 72.6645 20.6901 70.9443C20.8413 69.6763 20.9795 68.4235 21.2043 67.2199C21.3286 67.8838 21.6041 68.5019 22.118 68.9207C22.7423 69.4312 23.5893 69.5475 24.3866 69.6463C25.3687 69.7659 26.3735 69.8856 27.3399 69.6766C28.3063 69.4677 29.2479 68.8648 29.5951 67.9333C29.7319 68.384 30.3123 68.5407 30.7545 68.7029C31.1967 68.8651 31.6734 68.8879 32.1417 68.907C33.4479 68.9617 34.7544 69.0175 36.0611 69.0744C36.4138 69.0886 36.7801 69.1026 37.1083 68.9653C37.4364 68.8281 37.7096 68.5004 37.6657 68.1484C37.8989 68.6835 38.4113 68.9775 38.9567 69.187C39.502 69.3966 40.0894 69.4513 40.6717 69.4883C42.136 69.5834 43.6408 69.5764 45.0315 69.1026C45.733 68.8633 46.4047 68.4882 46.9607 67.995C47.0536 68.8791 47.1289 69.7735 47.1885 70.6734C47.2871 72.1136 46.2242 73.3688 44.7962 73.5274Z" fill="#2E0052"/>
</g>
<path d="M24.0986 74.6365C22.9822 74.6365 21.7502 74.1202 20.9314 73.2895C20.2318 72.5792 19.903 71.7172 20.0049 70.8623L20.0561 70.4335C20.3374 68.0575 20.6032 65.8134 21.5019 63.7446C22.1471 62.2597 24.8052 61.454 26.2141 61.6559C26.8953 61.754 27.6397 61.8989 28.4261 62.0811C29.0558 62.2287 30.4726 62.6582 31.1713 63.6392C32.4184 63.6656 33.3757 63.651 34.3839 63.6352C35.311 63.6209 36.2671 63.6064 37.4903 63.6243C38.2268 62.824 39.3175 62.3375 40.8108 62.1407C41.7485 62.0174 43.2164 62.0295 44.0086 62.0477C44.8071 62.0668 45.5732 62.3691 46.1711 62.9009C46.769 63.4328 47.1601 64.1599 47.2753 64.9536C47.5399 66.7285 47.7426 68.6364 47.8769 70.6242C47.9997 72.4358 46.6794 74.013 44.8712 74.2146L44.5554 74.2502C43.8026 74.3352 43.0243 74.4236 42.2454 74.4409C40.7797 74.4713 38.767 74.2259 37.3366 72.902C34.8951 72.7076 32.6053 72.6994 30.3894 72.6994H30.3816C29.2791 73.8596 27.5187 74.5445 25.5968 74.5454C25.2201 74.5487 24.844 74.5728 24.47 74.6177C24.3467 74.6306 24.2227 74.6369 24.0986 74.6365ZM21.3736 71.0272C21.308 71.5739 21.6301 72.0295 21.9114 72.3165C22.5327 72.9473 23.5224 73.3281 24.3203 73.2406C24.7439 73.191 25.17 73.165 25.5965 73.1626C27.2467 73.1626 28.7216 72.5658 29.5413 71.5681C29.6059 71.4894 29.687 71.426 29.7789 71.3824C29.8708 71.3389 29.9711 71.3163 30.0727 71.3163C32.4907 71.3163 34.9888 71.3163 37.6975 71.5441C37.8632 71.5582 38.0183 71.6318 38.1342 71.7516C39.2277 72.882 40.9563 73.0858 42.2152 73.0575C42.9318 73.0417 43.6456 72.9609 44.4015 72.8753L44.7194 72.8394C45.7913 72.7201 46.5744 71.7883 46.5018 70.7186C46.37 68.7676 46.1715 66.8974 45.9123 65.1608C45.8448 64.6897 45.6134 64.2578 45.259 63.9416C44.9047 63.6255 44.4504 63.4455 43.9765 63.4336C42.6955 63.4032 41.6072 63.4336 40.9896 63.5149C39.6965 63.6853 38.8593 64.0756 38.355 64.7422C38.2898 64.8294 38.2047 64.8997 38.107 64.9472C38.0093 64.9948 37.9016 65.0182 37.793 65.0156C36.4319 64.9898 35.4035 65.0059 34.4054 65.021C33.2817 65.0384 32.2203 65.0548 30.7518 65.0156C30.6208 65.012 30.4935 64.9711 30.3849 64.8975C30.2762 64.8239 30.1907 64.7207 30.1384 64.6001C29.9348 64.1309 29.1402 63.6717 28.1118 63.4305C27.3641 63.2547 26.6599 63.1189 26.0184 63.0269C25.0387 62.886 23.088 63.5553 22.7653 64.2985C21.9486 66.1815 21.6937 68.326 21.4245 70.5975L21.3736 71.0272Z" fill="#2E0052"/>
<path d="M29.2288 72.0057L30.3086 68.5398L30.5987 72.1594C30.607 72.263 30.5924 72.3672 30.5559 72.4644C30.5194 72.5617 30.4619 72.6497 30.3876 72.722C30.3133 72.7944 30.2239 72.8493 30.126 72.8829C30.028 72.9165 29.9239 72.928 29.821 72.9164C29.7181 72.9049 29.619 72.8707 29.5309 72.8162C29.4427 72.7617 29.3677 72.6883 29.3111 72.6013C29.2545 72.5142 29.2178 72.4157 29.2036 72.3127C29.1893 72.2098 29.198 72.1049 29.2288 72.0057Z" fill="#2E0052"/>
<path d="M37.0411 72.1097L37.6112 68.4828L38.4189 72.0629C38.4392 72.1532 38.4417 72.2466 38.4261 72.3378C38.4105 72.429 38.3771 72.5162 38.328 72.5945C38.2788 72.6728 38.2148 72.7406 38.1395 72.794C38.0643 72.8474 37.9793 72.8854 37.8894 72.9059C37.7995 72.9263 37.7065 72.9288 37.6156 72.9131C37.5248 72.8975 37.4379 72.864 37.36 72.8146C37.282 72.7653 37.2145 72.701 37.1613 72.6254C37.1081 72.5498 37.0702 72.4645 37.0499 72.3742C37.0306 72.2874 37.0276 72.1976 37.0411 72.1097Z" fill="#2E0052"/>
<path d="M31.3268 64.4006L30.4941 66.2395L30.2128 64.2454V64.2393C30.1999 64.1487 30.2083 64.0564 30.2371 63.9696C30.266 63.8828 30.3146 63.8039 30.3791 63.7393C30.4436 63.6747 30.5222 63.626 30.6087 63.5971C30.6952 63.5683 30.7872 63.5601 30.8774 63.5731C30.9676 63.5861 31.0535 63.6201 31.1284 63.6723C31.2032 63.7245 31.2649 63.7935 31.3086 63.8738C31.3523 63.9541 31.3768 64.0435 31.3801 64.1349C31.3834 64.2264 31.3655 64.3173 31.3277 64.4006H31.3268Z" fill="#2E0052"/>
<path d="M38.4878 64.5676L37.8064 66.1165L37.1107 64.5743C37.0581 64.4589 37.0352 64.3321 37.0439 64.2056C37.0527 64.079 37.093 63.9567 37.161 63.8497C37.229 63.7428 37.3226 63.6547 37.4333 63.5934C37.5439 63.5322 37.6681 63.4997 37.7945 63.4991C37.9208 63.4985 38.0453 63.5296 38.1566 63.5897C38.2679 63.6499 38.3624 63.737 38.4315 63.8433C38.5006 63.9495 38.542 64.0715 38.5521 64.1979C38.5621 64.3244 38.5405 64.4514 38.489 64.5673L38.4878 64.5676Z" fill="#2E0052"/>
<path d="M41.9659 67.625C41.6465 67.6246 41.3395 67.5008 41.1086 67.2792C40.8776 67.0576 40.7406 66.7552 40.7258 66.4348L40.6813 65.4377C40.6739 65.2742 40.6987 65.1108 40.7542 64.9569C40.8097 64.803 40.8949 64.6616 41.0048 64.5408C41.1148 64.42 41.2475 64.3221 41.3951 64.2528C41.5428 64.1835 41.7027 64.1441 41.8655 64.1369L44.0101 64.04C44.3388 64.0256 44.6598 64.1427 44.9026 64.3656C45.1455 64.5885 45.2904 64.899 45.3055 65.229L45.3503 66.2261C45.3648 66.5562 45.2482 66.8786 45.0262 67.1224C44.8042 67.3663 44.4948 67.5118 44.1661 67.5269L42.0216 67.6238C42.0035 67.6247 41.9847 67.625 41.9659 67.625ZM44.0666 65.1492H44.0606L41.916 65.246C41.8802 65.2477 41.8465 65.2636 41.8223 65.2901C41.798 65.3167 41.7853 65.3519 41.7869 65.3879L41.8313 66.385C41.8321 66.4028 41.8364 66.4203 41.8439 66.4365C41.8515 66.4527 41.8621 66.4673 41.8753 66.4793C41.8884 66.4914 41.9038 66.5007 41.9206 66.5068C41.9373 66.5128 41.9551 66.5155 41.9729 66.5146L44.1174 66.4178C44.1533 66.4161 44.187 66.4002 44.2112 66.3737C44.2354 66.3471 44.2481 66.3119 44.2466 66.2759L44.2021 65.2788C44.2004 65.2439 44.1854 65.2109 44.1602 65.1868C44.135 65.1627 44.1015 65.1492 44.0666 65.1492Z" fill="#2E0052"/>
<path d="M42.1487 71.7078C41.8292 71.7075 41.5222 71.5837 41.2912 71.3621C41.0603 71.1404 40.9232 70.838 40.9085 70.5176L40.8641 69.5205C40.8566 69.357 40.8814 69.1937 40.9369 69.0398C40.9924 68.8859 41.0775 68.7445 41.1875 68.6237C41.2974 68.5029 41.43 68.405 41.5777 68.3357C41.7253 68.2664 41.8851 68.227 42.048 68.2197L44.1928 68.1231C44.3556 68.1157 44.5184 68.1405 44.6716 68.1962C44.8249 68.252 44.9657 68.3375 45.0861 68.4479C45.2064 68.5584 45.3038 68.6915 45.3729 68.8398C45.4419 68.9881 45.4811 69.1486 45.4883 69.3122L45.533 70.3089C45.5474 70.639 45.4308 70.9613 45.2088 71.2052C44.9868 71.449 44.6776 71.5945 44.3489 71.6097L42.204 71.7066C42.1862 71.7075 42.1674 71.7078 42.1487 71.7078ZM44.2494 69.232H44.2433L42.0988 69.3286C42.0629 69.3302 42.0292 69.3461 42.005 69.3727C41.9808 69.3992 41.9681 69.4344 41.9696 69.4704L42.0141 70.4675C42.0148 70.4853 42.0191 70.5028 42.0266 70.519C42.0341 70.5352 42.0447 70.5498 42.0578 70.5618C42.071 70.5739 42.0863 70.5832 42.1031 70.5893C42.1198 70.5953 42.1376 70.598 42.1553 70.5971L44.3002 70.5003C44.336 70.4986 44.3697 70.4827 44.394 70.4562C44.4182 70.4296 44.4309 70.3944 44.4293 70.3584L44.3846 69.3617C44.3829 69.3267 44.368 69.2938 44.3428 69.2696C44.3176 69.2455 44.2842 69.232 44.2494 69.232Z" fill="#2E0052"/>
<path d="M26.6445 67.6251C26.6261 67.6251 26.6073 67.6251 26.5883 67.6251L24.4437 67.5282C24.1149 67.5129 23.8056 67.3672 23.5837 67.1231C23.3617 66.8789 23.2454 66.5564 23.2602 66.2262L23.3046 65.2291C23.3202 64.8992 23.4652 64.5889 23.708 64.3661C23.9507 64.1433 24.2715 64.026 24.6001 64.0401L26.745 64.1369C26.9078 64.1442 27.0677 64.1835 27.2153 64.2528C27.363 64.3222 27.4956 64.42 27.6056 64.5408C27.7156 64.6616 27.8008 64.803 27.8563 64.9569C27.9118 65.1108 27.9366 65.2742 27.9291 65.4377L27.8844 66.4348C27.8697 66.7552 27.7327 67.0576 27.5018 67.2792C27.2709 67.5008 26.9639 67.6247 26.6445 67.6251ZM24.5439 65.1492C24.5091 65.1493 24.4756 65.1628 24.4505 65.187C24.4253 65.2111 24.4104 65.244 24.4087 65.2789L24.3642 66.276C24.3634 66.2938 24.3661 66.3116 24.3721 66.3284C24.3782 66.3452 24.3875 66.3606 24.3995 66.3738C24.4115 66.387 24.4259 66.3976 24.442 66.4052C24.4581 66.4127 24.4756 66.417 24.4933 66.4178L26.6379 66.5147C26.6738 66.5163 26.7088 66.5035 26.7353 66.4792C26.7618 66.4549 26.7777 66.421 26.7794 66.385L26.8239 65.3879C26.8254 65.352 26.8126 65.3169 26.7884 65.2903C26.7642 65.2637 26.7306 65.2478 26.6947 65.2461L24.5499 65.1492H24.5439Z" fill="#2E0052"/>
<path d="M26.4621 71.7078C26.4434 71.7078 26.4246 71.7078 26.4056 71.7078L24.261 71.6109C23.9324 71.5957 23.6231 71.4503 23.4011 71.2064C23.1791 70.9625 23.0625 70.6402 23.0769 70.3102L23.1213 69.3134C23.1285 69.1498 23.1678 68.9893 23.2368 68.841C23.3058 68.6927 23.4033 68.5595 23.5237 68.4491C23.644 68.3386 23.7849 68.2531 23.9382 68.1974C24.0915 68.1417 24.2543 68.1169 24.4171 68.1244L26.5617 68.2209C26.8904 68.2361 27.1997 68.3815 27.4217 68.6254C27.6437 68.8693 27.7603 69.1916 27.7458 69.5217L27.7014 70.5176C27.6866 70.8378 27.5497 71.1401 27.3189 71.3617C27.0882 71.5833 26.7814 71.7072 26.4621 71.7078ZM24.3612 69.232C24.3263 69.232 24.2928 69.2456 24.2676 69.2698C24.2424 69.294 24.2275 69.327 24.226 69.362L24.1815 70.3588C24.1807 70.3766 24.1834 70.3944 24.1894 70.4112C24.1955 70.428 24.2048 70.4434 24.2168 70.4566C24.2288 70.4697 24.2432 70.4804 24.2594 70.488C24.2755 70.4955 24.2929 70.4998 24.3107 70.5006L26.4555 70.5975C26.4913 70.5988 26.5261 70.5859 26.5526 70.5617C26.579 70.5374 26.5949 70.5037 26.5967 70.4678L26.6412 69.4707C26.6428 69.4347 26.63 69.3996 26.6058 69.373C26.5816 69.3464 26.5479 69.3305 26.512 69.3289L24.3672 69.2323L24.3612 69.232Z" fill="#2E0052"/>
<g opacity="0.2">
<path d="M50.1614 55.8374C48.0798 56.7485 45.8436 57.3165 43.5902 57.6229C40.3441 58.0648 37.0486 57.9804 33.7835 57.7268C29.1308 57.3669 24.3642 56.614 20.2354 54.5184C21.3473 53.2629 22.6222 52.2102 24.0236 51.4546C25.5186 50.6517 27.1526 50.1432 28.8377 49.9564C30.8422 49.7292 32.8821 49.9491 34.732 50.6394C37.0241 49.7872 39.6039 49.6481 42.0452 50.1939C43.2302 50.4545 44.3734 50.8789 45.4423 51.4549C47.3582 52.4928 48.9816 54.0004 50.1614 55.8374Z" fill="#26004F"/>
</g>
<path d="M51.6989 79.4372C51.5834 78.7867 51.5988 78.1823 51.6687 77.5904C51.737 77.0019 51.8815 76.425 52.0985 75.8741C52.1353 75.7821 52.2044 75.7068 52.2926 75.6624C52.3809 75.618 52.4823 75.6075 52.5777 75.6329C52.6732 75.6583 52.7561 75.7179 52.8108 75.8004C52.8655 75.8829 52.8883 75.9827 52.8749 76.0809V76.0922C52.8106 76.593 52.8116 77.1001 52.8776 77.6007C52.9409 78.0945 53.0615 78.5841 53.2457 78.9798C53.2921 79.0772 53.3187 79.1828 53.3242 79.2905C53.3296 79.3983 53.3138 79.506 53.2776 79.6076C53.2413 79.7092 53.1854 79.8025 53.1131 79.8823C53.0408 79.9621 52.9534 80.0267 52.8561 80.0724C52.7588 80.1181 52.6534 80.144 52.546 80.1486C52.4387 80.1532 52.3315 80.1364 52.2306 80.0992C52.1298 80.062 52.0373 80.0052 51.9584 79.9319C51.8796 79.8586 51.8159 79.7704 51.7712 79.6723C51.7415 79.609 51.7201 79.5422 51.7077 79.4734L51.6989 79.4372Z" fill="#2E0052"/>
<path d="M16.9781 79.0251C17.1898 78.5427 17.3422 78.0362 17.4318 77.5168C17.5227 76.9753 17.5541 76.4253 17.5255 75.8768V75.8726C17.5214 75.7822 17.5503 75.6933 17.6067 75.6228C17.6631 75.5522 17.7432 75.5046 17.832 75.4891C17.9207 75.4735 18.0121 75.491 18.089 75.5382C18.1659 75.5854 18.223 75.6592 18.2497 75.7456C18.433 76.3347 18.5518 76.942 18.6042 77.5569C18.6555 78.1939 18.6295 78.8348 18.5267 79.4655L18.5237 79.4843C18.4867 79.6958 18.3683 79.8841 18.194 80.0085C18.0197 80.1329 17.8036 80.1834 17.5925 80.1489C17.3815 80.1145 17.1924 79.9979 17.0663 79.8245C16.9402 79.6511 16.8872 79.4348 16.9188 79.2225C16.9306 79.1545 16.9505 79.0883 16.9781 79.0251Z" fill="#2E0052"/>
<path d="M26.6439 57.6135C27.9482 57.7763 29.2234 57.9452 30.4998 58.0588C31.7763 58.1724 33.047 58.2462 34.3204 58.2656C35.5938 58.285 36.8669 58.2547 38.1451 58.1775C39.4234 58.1004 40.704 57.9755 42.0135 57.8553C40.8148 58.402 39.5404 58.7631 38.2443 59.0021C35.6378 59.4702 32.9657 59.4277 30.3752 58.877C29.0876 58.5969 27.8251 58.1963 26.6439 57.6135Z" fill="#2E0052"/>
<path d="M23.0451 75.5388C25.0481 75.8729 27.0338 76.179 29.0265 76.3968C31.0192 76.6094 33.0134 76.7464 35.0112 76.7916C37.009 76.8369 39.0087 76.8007 41.0117 76.699C43.0146 76.5912 45.017 76.408 47.0393 76.2213C45.1035 76.8393 43.1057 77.2554 41.087 77.5202C39.0649 77.7894 37.0249 77.8988 34.9858 77.8476C32.9453 77.8007 30.912 77.5869 28.9061 77.2083C26.9043 76.8347 24.9319 76.2948 23.0451 75.5388Z" fill="#2E0052"/>
<path d="M48.2038 65.7044C46.9822 66.0999 45.7984 66.6049 44.6667 67.2132C44.2762 67.4234 43.8833 67.6527 43.5993 67.9947C43.3153 68.3367 43.1574 68.8147 43.3017 69.2356C43.4175 69.5734 43.7118 69.827 44.0388 69.9676C44.3658 70.1082 44.7263 70.1498 45.0811 70.1747C46.2402 70.2545 47.4046 70.1693 48.5399 69.9217" fill="#43FF4B"/>
<path d="M48.3351 66.1138C47.4446 66.5766 46.5672 67.0152 45.7109 67.4893L45.0723 67.848C44.8606 67.9713 44.6649 68.0818 44.5088 68.1994C44.3518 68.312 44.2239 68.4338 44.1498 68.5407C44.0774 68.6356 44.0293 68.7469 44.0098 68.8648C44.0029 68.9011 44.0022 68.9383 44.0079 68.9747C44.0142 69.0088 44.0268 69.0415 44.0448 69.071C44.0878 69.1494 44.1937 69.2423 44.3201 69.3113C44.4571 69.3838 44.6383 69.437 44.8515 69.4786C45.0648 69.5202 45.3137 69.5503 45.5496 69.5782C46.507 69.6927 47.4821 69.7158 48.4906 69.6948H48.4924C48.547 69.6936 48.6003 69.7116 48.6432 69.7457C48.686 69.7797 48.7157 69.8277 48.727 69.8813C48.7384 69.9349 48.7308 69.9909 48.7056 70.0395C48.6803 70.0881 48.6389 70.1264 48.5886 70.1477C47.6231 70.5565 46.572 70.7651 45.5103 70.8158C45.2417 70.8246 44.9864 70.8331 44.6973 70.8158C44.3774 70.8022 44.0617 70.7381 43.7617 70.626C43.4016 70.4894 43.0858 70.2562 42.8486 69.9518C42.7151 69.7777 42.6159 69.5797 42.5564 69.3683C42.4978 69.159 42.4773 68.9408 42.4959 68.7242C42.5319 68.3078 42.6861 67.9522 42.8976 67.6466C43.0991 67.3713 43.3468 67.1333 43.6295 66.9432C43.8657 66.7849 44.1128 66.6438 44.3691 66.5211C44.6029 66.4032 44.8403 66.2936 45.0802 66.1897C46.0399 65.7758 47.0405 65.4551 48.0726 65.295C48.1743 65.2794 48.2783 65.3005 48.366 65.3547C48.4537 65.4089 48.5194 65.4925 48.5514 65.5908C48.5834 65.6891 48.5796 65.7955 48.5407 65.8913C48.5018 65.987 48.4304 66.0657 48.339 66.1135L48.3351 66.1138Z" fill="#2E0052"/>
<path d="M19.9955 66.1168C21.2163 66.5116 23.4316 66.6052 24.5629 67.2132C24.9534 67.4234 25.3463 67.6527 25.63 67.9947C25.9137 68.3366 26.0722 68.8147 25.9279 69.2356C25.8121 69.5733 25.5178 69.8269 25.1905 69.9676C24.8632 70.1082 24.5033 70.1498 24.1482 70.1747C22.9912 70.2546 20.821 69.7301 19.6873 69.4825" fill="#43FF4B"/>
<path d="M21.1247 65.3946C22.1358 65.6011 23.1231 65.9294 24.0756 66.3407C24.313 66.4442 24.5514 66.5478 24.7837 66.665C25.0347 66.7838 25.2778 66.9188 25.5114 67.0693C26.0036 67.3836 26.5341 67.9567 26.6161 68.7348C26.6391 68.9376 26.6237 69.143 26.5707 69.3401C26.5169 69.5402 26.4265 69.7285 26.3039 69.8953C26.0815 70.1923 25.7841 70.4243 25.4425 70.5674C25.1258 70.6995 24.8121 70.7533 24.5278 70.783C24.2435 70.8128 23.9861 70.8213 23.7187 70.8213C22.6582 70.828 21.5968 70.6819 20.5944 70.3603C20.4895 70.3255 20.4011 70.2532 20.3461 70.157C20.291 70.0608 20.2733 69.9476 20.2963 69.8391C20.3193 69.7307 20.3814 69.6345 20.4706 69.5692C20.5598 69.5038 20.67 69.4738 20.7799 69.485H20.7838C21.7556 69.5931 22.7196 69.6323 23.6788 69.5761C23.915 69.5576 24.1651 69.5415 24.3808 69.5135C24.5707 69.4933 24.7568 69.4456 24.9331 69.372C25.061 69.3207 25.1736 69.237 25.2598 69.129C25.3242 69.0379 25.3378 68.9772 25.3363 68.8557C25.3238 68.7137 25.2742 68.5775 25.1926 68.4609C25.1085 68.333 24.9703 68.2003 24.8082 68.0745C24.6249 67.9389 24.4329 67.8154 24.2335 67.7049C24.0218 67.5834 23.8079 67.458 23.5916 67.3405C22.7284 66.8636 21.8373 66.4324 20.926 66.0166C20.8531 65.9832 20.7951 65.924 20.7629 65.8504C20.7306 65.7768 20.7265 65.6939 20.7512 65.6174C20.776 65.5409 20.8278 65.4762 20.897 65.4357C20.9661 65.3951 21.0477 65.3814 21.1262 65.3973L21.1247 65.3946Z" fill="#2E0052"/>
<path d="M60.5516 33.4823C60.2516 30.69 59.5746 22.2116 57.7026 16.9149C56.9888 14.8953 56.1104 12.8279 54.4574 11.4311C52.8044 10.0344 50.1656 9.54359 48.4721 10.8665C46.1352 8.73845 43.0521 6.97086 39.7101 6.42783C36.3738 5.85078 32.5699 6.2456 29.7841 7.73105C28.6112 5.92671 25.9573 5.52976 23.9413 6.3109C21.9253 7.09204 20.4256 8.76002 19.0969 10.4371C15.6109 14.8348 12.1016 22.697 11.0378 25.1737C7.27778 26.862 5.38733 31.3299 5.88247 35.3744C6.37762 39.4189 8.8467 43.0221 11.8333 45.8697C21.7592 55.3376 38.0199 57.937 51.4874 52.9717C55.354 51.5464 60.3459 48.4749 62.1242 44.8116C63.9024 41.1482 63.5606 36.3065 60.5516 33.4823Z" fill="#43FF4B"/>
<g opacity="0.6">
<path d="M59.2105 22.9736C58.9247 21.7236 58.5968 20.5269 58.2199 19.464C57.5061 17.4443 56.6274 15.3769 54.9753 13.979C53.6142 12.8273 51.5801 12.2918 49.9597 12.8801C49.6342 13.0006 49.2834 13.0354 48.9408 12.981C48.5981 12.9267 48.2751 12.7851 48.0024 12.5697C45.8697 10.8738 43.2584 9.51442 40.4542 9.01269C39.8317 9.71365 38.1533 10.2154 36.1821 10.2154C34.376 10.2154 32.8135 9.79292 32.0872 9.18277C31.6046 9.29599 31.129 9.43797 30.6632 9.60796C30.3559 9.72218 30.0237 9.75143 29.7013 9.69266C29.3789 9.63389 29.0782 9.48926 28.8305 9.27388C27.6732 8.25432 26.1082 8.21909 24.4604 8.8584C22.4435 9.63833 20.9426 11.306 19.6151 12.984C16.597 16.7895 13.5629 23.192 12.1107 26.4514C11.7723 27.2107 11.206 27.8391 10.5076 28.2916C7.5316 30.225 6.03406 34.0587 6.3692 37.6258C6.13956 36.8915 5.97697 36.1377 5.88343 35.3738C5.38707 31.3293 7.27752 26.8617 11.0376 25.1737C12.102 22.696 15.6112 14.8336 19.0975 10.435C20.4254 8.75848 21.9266 7.09081 23.9413 6.30906C25.9561 5.52731 28.6115 5.92517 29.7848 7.73012C32.5697 6.24407 36.3736 5.84955 39.711 6.42721C43.0518 6.96933 46.1349 8.73753 48.4725 10.8647C50.1663 9.54205 52.8042 10.0335 54.4581 11.4299C56.112 12.8264 56.9886 14.8922 57.7024 16.9134C58.3303 18.6877 58.8231 20.8185 59.2105 22.9736Z" fill="white"/>
</g>
<path d="M63.1775 39.3202C62.7461 38.0823 62.0499 36.9482 61.0695 36.0292C61.009 35.4761 60.9365 34.6996 60.84 33.7699C62.2791 35.2666 63.0353 37.2565 63.1775 39.3202Z" fill="#97D457"/>
<path d="M60.8399 33.7687C60.7492 33.67 60.6521 33.5749 60.5523 33.4817C60.3523 31.6239 59.9857 27.2514 59.2105 22.9733C60.0683 26.7105 60.5523 30.9487 60.8399 33.7687Z" fill="#97D457"/>
<g opacity="0.2">
<path d="M23.9513 19.6516C25.4715 18.0681 27.8408 17.1916 29.9272 17.8598C31.6985 18.4286 32.9725 19.9508 34.5215 20.9843C36.3899 22.2295 38.7222 22.7574 40.9421 22.4339C43.2272 22.0998 45.6283 20.9269 47.7174 21.9137C49.2679 22.6456 50.1185 24.446 50.1215 26.1656C50.1245 27.8852 49.4152 29.531 48.5378 31.0089C48.6212 30.8643 36.2979 27.4956 35.1201 27.2899C30.478 26.479 25.7259 26.09 21.0137 26.2497C21.6313 25.588 21.5757 24.1238 21.8691 23.2497C22.3143 21.9264 22.9794 20.6642 23.9513 19.6516Z" fill="#2E0052"/>
</g>
<g opacity="0.2">
<path d="M62.1236 44.8125C60.3454 48.4752 55.3543 51.546 51.4872 52.9725C38.0205 57.9382 21.7599 55.3372 11.833 45.8706C8.84642 43.0233 6.37734 39.4204 5.88279 35.3741C5.42667 31.6636 6.98047 27.5961 10.1443 25.6469C9.75111 26.9322 9.73085 28.3037 9.78469 29.6403C10.4377 45.8411 38.6508 51.7999 50.7343 47.7657C61.9234 44.0301 60.6902 35.1062 60.6569 33.5849C63.567 36.4216 63.8822 41.1919 62.1236 44.8125Z" fill="#2E0052"/>
</g>
<path d="M60.6575 33.5865C60.6224 33.5512 60.5873 33.5178 60.5522 33.4844C60.496 32.9702 60.4276 32.2623 60.3405 31.4171C60.535 32.1243 60.6414 32.853 60.6575 33.5865Z" fill="#97D457"/>
<path d="M37.382 56.2432C34.9734 56.2448 32.5691 56.0399 30.1952 55.6306C22.7596 54.3404 16.2183 51.1682 11.2786 46.4564C7.68554 43.0294 5.54312 39.2318 5.08336 35.4737C4.52561 30.918 6.75876 26.3927 10.4196 24.5732C11.575 21.9079 15.0314 14.2683 18.4654 9.93441C19.8725 8.15862 21.4756 6.40014 23.6515 5.55643C25.65 4.78197 28.4191 4.97331 30.0147 6.71539C32.7814 5.43981 36.3989 5.03436 39.8468 5.63115C42.8601 6.12073 45.9289 7.61316 48.5435 9.85271C50.6215 8.69558 53.3262 9.41871 54.9759 10.8121C56.7605 12.3204 57.706 14.5065 58.4616 16.6434C60.1554 21.4389 60.8862 28.748 61.2368 32.2604C61.267 32.5729 61.2973 32.856 61.3218 33.105C64.2022 36.0207 64.8522 41.0343 62.8477 45.1647C61.0187 48.9332 55.9635 52.1804 51.7648 53.7294C47.2571 55.3928 42.3195 56.2432 37.382 56.2432ZM26.0253 6.73847C25.4124 6.73713 24.8044 6.84798 24.2311 7.06557C22.4132 7.77109 20.9916 9.344 19.727 10.9403C16.2851 15.2833 12.7719 23.178 11.7771 25.4944C11.6971 25.6804 11.5505 25.8295 11.3663 25.9123C7.73756 27.5426 6.26301 31.8553 6.68163 35.2763C7.2043 39.5482 10.0723 43.0764 12.3878 45.2838C18.7397 51.3425 28.0283 54.6171 37.5027 54.6174C42.1344 54.6174 46.8094 53.8354 51.2098 52.2129C55.1054 50.7764 59.7686 47.8219 61.4001 44.4592C62.9031 41.3614 62.9058 36.8 60.0018 34.0742C59.8608 33.9419 59.7719 33.7632 59.751 33.5706C59.7174 33.256 59.6787 32.8697 59.6343 32.4244C59.2901 28.9752 58.5735 21.7979 56.9423 17.1867C56.2629 15.2639 55.4299 13.3111 53.9375 12.0513C52.5985 10.9199 50.3723 10.4067 48.9652 11.5061C48.8156 11.623 48.6298 11.6832 48.4404 11.676C48.251 11.6689 48.0702 11.5948 47.9298 11.4669C45.445 9.20429 42.4795 7.6985 39.58 7.22744C36.2553 6.6504 32.6489 7.11963 30.1601 8.44654C29.9825 8.54109 29.7761 8.56548 29.5814 8.51489C29.3868 8.46431 29.2181 8.34241 29.1084 8.1732C28.4627 7.17885 27.2476 6.73847 26.0253 6.73847Z" fill="#2E0052"/>
<path d="M20.5839 25.6967C30.3186 25.0832 40.1998 26.9723 49.0278 31.1377C49.0278 31.1377 44.7511 35.3428 34.5049 33.6187C24.2586 31.8945 20.5839 25.6967 20.5839 25.6967Z" fill="#43FF4B"/>
<g opacity="0.2">
<path d="M46.0493 32.9347C45.8981 34.2513 45.1016 35.4315 44.0784 36.2688C43.0551 37.1061 41.8186 37.6355 40.5697 38.0646C36.7095 39.3873 32.4855 39.8207 28.5231 38.8513C32.1688 41.4039 36.6424 42.7433 41.0851 42.6124C45.5278 42.4815 49.9155 40.8813 53.4057 38.1175C53.8897 37.7336 54.3821 37.2926 54.5512 36.6964C54.8488 35.6471 54.0482 34.6212 53.2415 33.8902C52.0576 32.8197 50.7366 31.9128 49.3136 31.1935C48.6019 30.8333 45.6134 29.2349 45.0079 29.9274C45.7317 30.7941 46.1815 31.7727 46.0493 32.9347Z" fill="#2E0052"/>
</g>
<g opacity="0.6">
<path d="M19.8858 25.7741C24.6388 25.4097 37.3148 25.0726 47.6558 30.512L19.8691 26.2555C19.5851 26.2121 19.6002 25.7963 19.8858 25.7741Z" fill="white"/>
</g>
<path d="M20.5609 25.3156C21.1719 25.2576 21.7841 25.2011 22.3975 25.1522L23.3182 25.079C23.6255 25.0577 23.9332 25.0486 24.2405 25.0358C24.856 25.0119 25.4718 25.0094 26.088 25.01C26.7041 25.0106 27.3205 25.0264 27.9364 25.0547C28.5522 25.0829 29.1687 25.1172 29.7815 25.1661C30.3943 25.215 31.0095 25.2782 31.6223 25.3484C32.8488 25.485 34.0684 25.68 35.2822 25.9069C37.7094 26.3613 40.0992 26.9982 42.4315 27.8121C43.0128 28.0176 43.5909 28.2321 44.1658 28.4556C44.7405 28.6822 45.3074 28.9224 45.8715 29.1699C46.997 29.6723 48.1061 30.2101 49.1781 30.817C49.2572 30.8605 49.3168 30.9328 49.3446 31.019C49.3724 31.1052 49.3663 31.1988 49.3277 31.2806C49.2891 31.3625 49.2208 31.4265 49.1368 31.4594C49.0527 31.4924 48.9593 31.4919 48.8756 31.4581C46.6116 30.5773 44.3349 29.7661 42.0216 29.08C39.7138 28.3856 37.3727 27.8078 35.0073 27.3489C33.8255 27.1181 32.6359 26.9298 31.4435 26.7582C30.8471 26.6744 30.2491 26.6018 29.6496 26.5353C29.0501 26.4687 28.4515 26.4044 27.8508 26.353C26.6494 26.2528 25.4449 26.1745 24.2371 26.1328C23.9347 26.1225 23.6322 26.1088 23.3297 26.1073L22.4223 26.1037C21.8174 26.1013 21.2124 26.0909 20.6044 26.0794H20.5848C20.4876 26.0774 20.3948 26.0381 20.3254 25.9696C20.2561 25.9012 20.2154 25.8087 20.2118 25.7111C20.2082 25.6135 20.2418 25.5182 20.3059 25.4448C20.3699 25.3713 20.4595 25.3252 20.5564 25.3159L20.5609 25.3156Z" fill="#2E0052"/>
<path d="M55.0969 37.3321C54.7216 37.6586 54.3531 37.9961 53.9605 38.304C53.5679 38.612 53.1669 38.9084 52.7549 39.1902C51.9263 39.7476 51.0587 40.244 50.1588 40.6757C49.9343 40.7844 49.7051 40.8883 49.48 40.9885C49.255 41.0887 49.0118 41.1853 48.7864 41.2749C48.3273 41.4571 47.8533 41.6251 47.3793 41.7769C45.4758 42.3757 43.496 42.6948 41.5014 42.7245C41.254 42.7272 41.0044 42.7263 40.7549 42.7209C40.5111 42.7142 40.2637 42.7063 40.0163 42.6932C39.5214 42.6686 39.0284 42.6206 38.5381 42.5578C36.5826 42.3117 34.6745 41.7747 32.8764 40.9645C32.7825 40.9253 32.7075 40.851 32.6669 40.7574C32.6264 40.6638 32.6236 40.558 32.659 40.4623C32.6945 40.3667 32.7655 40.2885 32.8571 40.2442C32.9487 40.2 33.0539 40.1931 33.1504 40.225H33.1544C33.6055 40.3602 34.0585 40.483 34.5134 40.5934C34.9671 40.7015 35.4314 40.7966 35.8899 40.8767C36.8065 41.0406 37.7322 41.1486 38.6618 41.1999C39.1252 41.2248 39.5889 41.2327 40.0532 41.2303C40.2842 41.2303 40.5156 41.2227 40.7507 41.2151C40.9802 41.2066 41.2092 41.1938 41.4403 41.1777C42.3623 41.1151 43.2792 40.9924 44.1852 40.8102C45.9753 40.4573 47.7405 39.8535 49.3938 39.063C51.0537 38.2636 52.6146 37.2717 54.0446 36.1076L54.0637 36.0921C54.2272 35.9543 54.4386 35.8874 54.6512 35.9061C54.8639 35.9248 55.0604 36.0275 55.1977 36.1917C55.3349 36.3559 55.4015 36.5681 55.3829 36.7817C55.3643 36.9952 55.262 37.1925 55.0984 37.3303L55.0969 37.3321Z" fill="#2E0052"/>
<path d="M54.3975 35.566C54.1733 36.2077 53.9276 36.8419 53.6604 37.4688C52.2335 38.5765 50.6735 39.4996 49.0172 40.2164C48.6944 38.0522 49.0492 35.9302 50.0456 34.1541C50.4962 33.3517 51.1094 32.5912 51.9566 32.2374C52.8038 31.8835 53.916 32.0521 54.4329 32.8126C54.9686 33.601 54.7142 34.667 54.3975 35.566Z" fill="#FF6EB9"/>
<path d="M49.0172 41.025C48.8242 41.025 48.6377 40.9555 48.4915 40.8291C48.3453 40.7027 48.2493 40.5277 48.2208 40.3361C47.8681 37.9702 48.2568 35.6952 49.3451 33.7569C49.9802 32.6268 50.7549 31.8642 51.6481 31.4909C52.9166 30.9579 54.4006 31.3299 55.0987 32.3568C55.847 33.4595 55.5221 34.794 55.1574 35.834C54.9296 36.4857 54.6734 37.1429 54.4012 37.7868C54.3473 37.9135 54.262 38.0242 54.1535 38.1084C52.6731 39.2577 51.0547 40.2154 49.3363 40.9591C49.2355 41.0026 49.1269 41.025 49.0172 41.025ZM52.8543 32.8704C52.6536 32.8693 52.4546 32.9075 52.2685 32.983C51.7131 33.2151 51.2019 33.7423 50.7479 34.5514C50.0044 35.8753 49.6527 37.3968 49.7113 39.0029C50.8694 38.4258 51.9711 37.7411 53.0019 36.9577C53.2309 36.4089 53.4448 35.8519 53.6371 35.2988C53.8579 34.6714 54.1117 33.7784 53.7666 33.27C53.5827 32.9949 53.22 32.8704 52.8543 32.8704Z" fill="#2E0052"/>
<path d="M51.3526 39.2847C51.277 39.2848 51.2023 39.2678 51.1342 39.2348C51.0661 39.2018 51.0064 39.1538 50.9594 39.0944C50.9124 39.0349 50.8795 38.9655 50.863 38.8914C50.8466 38.8173 50.847 38.7405 50.8644 38.6666C51.1456 37.471 51.5302 36.3024 52.0138 35.1739C52.0388 35.1119 52.076 35.0556 52.123 35.0081C52.17 34.9607 52.226 34.9232 52.2877 34.8978C52.3493 34.8723 52.4154 34.8595 52.4821 34.8601C52.5487 34.8606 52.6146 34.8745 52.6758 34.9009C52.737 34.9274 52.7924 34.9658 52.8386 35.014C52.8849 35.0622 52.9211 35.1192 52.9451 35.1816C52.9692 35.244 52.9806 35.3106 52.9786 35.3775C52.9767 35.4444 52.9615 35.5103 52.9339 35.5712C52.4738 36.6455 52.1081 37.758 51.8408 38.8962C51.815 39.0068 51.7527 39.1053 51.6641 39.1758C51.5754 39.2464 51.4657 39.2847 51.3526 39.2847Z" fill="#2E0052"/>
<path d="M39.2495 39.1586C39.7641 40.0959 40.2783 41.0325 40.7921 41.9685C38.8449 41.989 36.9041 41.7438 35.0227 41.2396C35.5802 40.4228 36.1842 39.639 36.8318 38.8923C37.1863 38.4841 37.6485 38.0534 38.1799 38.133C38.6863 38.2053 39.0029 38.7079 39.2495 39.1586Z" fill="white"/>
<path d="M48.5904 40.3956C47.2944 40.9272 45.9489 41.328 44.5739 41.5923L45.1268 38.4003C45.1828 38.0844 45.2781 37.7163 45.5805 37.6058C45.883 37.4952 46.1994 37.7206 46.4377 37.9398C47.2416 38.6779 47.9634 39.5013 48.5904 40.3956Z" fill="white"/>
<path d="M44.5418 41.5983C44.3688 42.6005 44.0784 44.3827 43.5542 44.9555C43.2953 45.2379 42.7981 45.1183 42.4844 44.899C42.1353 44.6542 41.083 42.753 40.7116 41.9685H40.7918C41.9761 41.9583 43.1575 41.848 44.3234 41.6387C44.3975 41.6265 44.4677 41.6125 44.5418 41.5983Z" fill="white"/>
<path d="M39.9191 38.7884C40.0637 39.0137 40.2089 39.2388 40.3468 39.4678C40.4847 39.6968 40.6048 39.9352 40.7185 40.1775L41.0618 40.9031C41.1762 41.1461 41.2832 41.3912 41.3946 41.6347L41.4369 41.7277C41.5093 41.8866 41.5159 42.0679 41.4552 42.2317C41.3945 42.3955 41.2715 42.5284 41.1133 42.6011C41.0147 42.6458 40.9069 42.6658 40.799 42.6595C40.2969 42.6291 39.7975 42.565 39.302 42.4933C38.8066 42.4217 38.3154 42.3312 37.8287 42.2282C37.3408 42.1331 36.8584 42.0183 36.3768 41.905C35.8953 41.7918 35.4174 41.6706 34.9419 41.5388H34.9383C34.8593 41.5168 34.7923 41.4644 34.7518 41.3928C34.7114 41.3213 34.7009 41.2366 34.7226 41.1573C34.7322 41.1239 34.747 41.0922 34.7665 41.0635L35.6464 39.7864C35.944 39.3612 36.2283 38.9342 36.542 38.5014C36.7083 38.2775 36.8968 38.0458 37.1678 37.8411C37.3155 37.7285 37.4798 37.6396 37.6548 37.5778C37.8575 37.5069 38.0731 37.4813 38.2866 37.5028C38.5035 37.5261 38.7132 37.5939 38.9028 37.702C39.0696 37.7967 39.2223 37.9145 39.3565 38.0519C39.6018 38.3024 39.7703 38.5591 39.9191 38.7884ZM38.5794 39.5285C38.4836 39.3114 38.3907 39.1249 38.299 38.9925C38.263 38.9385 38.2231 38.8872 38.1799 38.8388C38.1538 38.8089 38.1232 38.7834 38.0891 38.7632C38.0509 38.7427 38.0081 38.7322 37.9648 38.7328C37.8938 38.7367 37.8242 38.7543 37.7597 38.7844C37.6003 38.8528 37.421 38.9837 37.2455 39.1376C36.8765 39.4773 36.5263 39.837 36.1966 40.2152C35.8665 40.5962 35.5592 40.9963 35.2761 41.4136L35.1007 40.9371C35.5639 41.0597 36.0332 41.1577 36.5066 41.2308C36.9797 41.3049 37.4576 41.3447 37.9343 41.3717C38.4119 41.3906 38.8892 41.3924 39.3647 41.3739C39.8401 41.3553 40.3129 41.3186 40.7829 41.277L40.1892 42.3029C40.0431 42.0782 39.8934 41.8558 39.7506 41.6296L39.3214 40.9496C39.178 40.7236 39.0428 40.494 38.9221 40.2544C38.8015 40.0148 38.692 39.7718 38.5794 39.5285Z" fill="#2E0052"/>
<path d="M44.5738 42.401C44.4564 42.401 44.3404 42.3752 44.234 42.3254C44.1275 42.2756 44.0332 42.203 43.9576 42.1128C43.8821 42.0225 43.8271 41.9168 43.7965 41.8029C43.766 41.6891 43.7606 41.5699 43.7808 41.4538L44.3334 38.2618C44.389 37.9495 44.5345 37.1295 45.3013 36.8468C45.8379 36.6469 46.4035 36.8134 46.9797 37.3436C47.8276 38.1202 48.5883 38.9876 49.2482 39.9303C49.3182 40.0297 49.3648 40.1437 49.3848 40.2637C49.4047 40.3838 49.3974 40.5068 49.3634 40.6235C49.3294 40.7403 49.2695 40.8479 49.1883 40.9382C49.1071 41.0286 49.0066 41.0993 48.8944 41.1452C47.5487 41.6968 46.1519 42.113 44.7245 42.3877C44.6748 42.3969 44.6244 42.4014 44.5738 42.401ZM45.9168 38.5579L45.5729 40.5414C46.1541 40.3942 46.7288 40.2209 47.297 40.0215C46.8716 39.5018 46.4104 39.0127 45.9168 38.5579Z" fill="#2E0052"/>
<path d="M43.1401 45.9295C42.7469 45.9295 42.3452 45.7877 42.0234 45.562C41.3392 45.0818 39.9968 42.3427 39.9844 42.3157C39.9261 42.1925 39.8998 42.0566 39.9079 41.9205C39.9159 41.7844 39.9581 41.6525 40.0306 41.5372C40.103 41.4219 40.2033 41.3268 40.3222 41.2609C40.441 41.1949 40.5746 41.1603 40.7104 41.16H40.7905C41.9274 41.1496 43.0614 41.0435 44.1806 40.8427C44.2436 40.8323 44.2916 40.8232 44.3409 40.8123L44.3909 40.8029C44.5187 40.7785 44.6505 40.7856 44.775 40.8236C44.8995 40.8616 45.013 40.9293 45.1057 41.021C45.1984 41.1127 45.2676 41.2255 45.3074 41.3499C45.3471 41.4743 45.3562 41.6065 45.334 41.7353L45.3149 41.8464C45.0496 43.3893 44.7605 44.8298 44.1459 45.5013C43.8715 45.8032 43.5104 45.9295 43.1401 45.9295ZM42.9707 44.2527C42.9945 44.267 43.0194 44.2792 43.0452 44.2892C43.2369 43.9551 43.4127 43.2295 43.5439 42.5796C43.0388 42.6482 42.5291 42.6992 42.0183 42.7314C42.3924 43.4048 42.7959 44.0644 42.9707 44.2527Z" fill="#2E0052"/>
<path d="M27.6354 30.4768C27.3057 29.5629 27.5447 28.6381 28.169 28.4115C28.7933 28.185 29.5664 28.742 29.8958 29.6567C30.2252 30.5715 29.9865 31.4957 29.3619 31.722C28.7373 31.9482 27.9648 31.3918 27.6354 30.4768Z" fill="#2E0052"/>
<path d="M42.0576 33.3948C42.844 32.8266 43.1652 31.9279 42.7772 31.3873C42.3891 30.8467 41.4378 30.8686 40.6523 31.4365C39.8668 32.0045 39.5446 32.9037 39.9327 33.4446C40.3208 33.9856 41.2718 33.9631 42.0576 33.3948Z" fill="#2E0052"/>
<path d="M49.261 28.4975C49.0726 29.3743 48.728 30.1588 48.2873 30.7944C46.4937 29.98 44.6597 29.2582 42.7926 28.632C42.7877 28.1263 42.8394 27.6216 42.9469 27.1275C43.4956 24.5763 45.3546 22.8133 47.0974 23.1914C48.8403 23.5695 49.8097 25.9448 49.261 28.4975Z" fill="#2E0052"/>
<path d="M29.8897 25.0137C29.8351 25.2956 29.7626 25.5738 29.6725 25.8465C27.6017 25.648 25.5217 25.562 23.4416 25.5889C23.3934 24.9788 23.4292 24.3649 23.5478 23.7645C24.0487 21.2039 25.8735 19.406 27.6242 19.7519C29.3749 20.0978 30.3885 22.451 29.8897 25.0137Z" fill="#2E0052"/>
<path d="M28.8208 23.2603C28.9951 22.4382 28.7824 21.637 28.3457 21.4706C27.9089 21.3041 27.4128 21.835 27.2386 22.6584C27.0644 23.4817 27.2764 24.2811 27.7138 24.4475C28.1512 24.614 28.646 24.0831 28.8208 23.2603Z" fill="white"/>
<g opacity="0.35">
<path d="M25.0826 24.2055C25.1582 23.6521 25.0523 23.11 24.846 22.9943C24.6397 22.8786 24.4111 23.2339 24.3355 23.7873C24.2598 24.3406 24.3657 24.8827 24.572 24.9984C24.7783 25.1142 25.0069 24.7588 25.0826 24.2055Z" fill="white"/>
</g>
<path d="M44.4895 26.1759C44.6933 25.3608 45.2354 24.7354 45.7009 24.7789C46.1664 24.8223 46.3781 25.5196 46.1739 26.3345C45.9698 27.1493 45.4283 27.775 44.964 27.7315C44.4997 27.6881 44.2871 26.9914 44.4907 26.1759H44.4895Z" fill="white"/>
<g opacity="0.35">
<path d="M47.4313 28.6775C47.6061 28.1473 47.9388 27.7057 48.1748 27.6944C48.4107 27.6832 48.4603 28.1017 48.2855 28.632C48.1107 29.1623 47.7782 29.6039 47.5423 29.6151C47.3064 29.6263 47.2568 29.2078 47.4313 28.6775Z" fill="white"/>
</g>
<g opacity="0.2">
<path d="M68.4392 63.7852C67.3573 69.6468 64.2603 75.1114 59.797 79.0381C58.5266 80.1582 57.4135 81.5528 55.3951 81.4295C53.9762 81.3433 53.0521 80.3501 52.2225 79.1016C50.3075 79.7883 48.1088 80.2988 45.931 80.6809C40.1965 81.6861 34.5914 81.7903 34.5914 81.8025C34.5914 81.7903 29.3144 81.739 23.7586 80.7583C21.6613 80.3884 19.5216 79.8867 17.6118 79.2033C16.7824 80.4519 15.4642 81.6722 13.7888 81.431C12.1134 81.1899 10.6619 80.1597 9.38693 79.0396C6.23094 76.2595 3.7549 72.7094 2.19565 68.7931C1.54983 67.1756 1.06404 65.4982 0.745299 63.7852C0.65244 63.2747 0.585896 62.7006 0.87869 62.2727C1.07167 61.9927 1.382 61.843 1.71866 61.8059C3.16705 66.1492 5.54395 70.122 8.68278 73.4456C9.72964 74.5514 10.9329 75.6202 12.4165 75.9567C13.9001 76.2932 15.7029 75.6344 16.1835 74.187C26.8408 80.5472 41.1006 80.8254 52.0909 75.0619C52.263 76.9619 54.7796 77.7455 56.6192 77.2739C58.4588 76.8022 59.8372 75.2946 61.0141 73.7976C63.8506 70.1837 66.1823 66.1979 67.9447 61.9505C68.0887 62.0277 68.2125 62.1382 68.3058 62.2727C68.6007 62.7006 68.5321 63.2747 68.4392 63.7852Z" fill="#2E0052"/>
</g>
<defs>
<linearGradient id="paint0_linear_80_168" x1="121" y1="14" x2="121" y2="72" gradientUnits="userSpaceOnUse">
<stop stop-color="#DBFF43"/>
<stop offset="0.0001" stop-color="#DAFF43"/>
<stop offset="0.353099" stop-color="#43FF4B"/>
<stop offset="0.624346" stop-color="#D2FF43"/>
<stop offset="1" stop-color="#48FF4B"/>
</linearGradient>
</defs>
</svg>
