<svg width="120" height="50" viewBox="0 0 120 50" fill="none" xmlns="http://www.w3.org/2000/svg">
<path d="M1.88 0.831998L1.448 1.624C1.664 4.72 1.52 8.032 1.952 11.128C2.168 12.856 3.536 13.144 3.824 15.376C4.04 18.256 3.896 21.712 3.896 24.736V31.936C3.896 33.16 3.896 34.168 3.248 35.104L1.376 36.184C1.016 37.192 0.584 46.48 0.44 48.424C1.016 49 2.6 48.712 3.32 48.712C9.152 48.712 15.128 48.352 20.96 47.92C21.896 44.392 22.112 38.56 22.112 34.888C22.112 33.952 22.04 33.016 21.968 32.08L21.32 32.008C20.456 32.008 18.08 32.512 17.432 33.088V34.528C16.28 35.752 13.4 35.752 11.816 35.752C11.168 35.752 10.448 35.536 10.16 34.96V30.496C10.16 27.76 9.8 14.224 11.168 12.712C11.672 12.136 12.896 11.56 13.544 11.128C13.904 10.192 14.12 3.208 14.12 1.696C14.12 1.48 13.832 1.12 13.832 0.903997C9.8 1.408 5.768 1.48 1.88 0.831998ZM33.7378 20.704C33.7378 15.448 37.7698 14.368 41.9458 14.368C46.9138 14.368 47.2018 21.352 47.2018 24.88C47.2018 30.784 45.2578 34.312 38.9218 34.312C33.0898 34.312 33.5938 29.056 33.6658 24.808L33.7378 20.704ZM33.9538 0.759999C32.7298 1.552 31.2898 2.272 30.1378 3.28C26.1778 6.664 26.2498 20.992 26.2498 26.104C26.2498 32.728 26.1778 39.568 27.6178 46.048C31.8658 49.36 38.2738 48.856 43.4578 48.856C45.6178 48.856 47.9218 48.496 50.0818 48.136C54.4738 43.528 53.9698 20.128 53.9698 12.496C53.9698 9.328 53.4658 5.944 52.9618 2.704C46.4098 1.12 40.5778 0.975996 33.9538 0.759999ZM66.3043 1.12C60.8323 1.12 59.3923 13.288 58.8883 16.96L58.9603 17.032C58.9603 21.928 58.1683 26.752 58.1683 31.72C58.1683 39.496 57.5203 48.928 67.9603 48.928C71.6323 48.928 74.4403 47.128 77.3923 45.256H78.4723L79.0483 48.424C79.6963 48.352 80.4163 48.64 81.1363 48.64C82.1443 48.64 84.8803 48.352 85.8883 47.92C86.0323 43.096 85.0963 37.48 87.4723 33.304V30.928C87.4723 29.272 87.3283 27.544 87.2563 25.888L86.1043 25.744C81.3523 25.744 75.3043 26.032 70.6243 26.68C70.4083 27.4 70.3363 28.264 70.3363 29.056C70.3363 30.064 70.4083 32.728 70.9843 33.52L74.2243 33.952V35.464C73.7923 35.824 71.4883 36.832 71.0563 36.832C65.8003 36.832 64.0723 32.152 64.0723 27.472C64.0723 20.056 68.9683 16.744 76.0243 16.744C77.4643 16.744 78.4723 18.328 79.0483 19.48C79.3363 19.552 79.6963 19.624 80.1283 19.624C82.5043 19.624 84.3763 19.12 86.8243 19.552C87.5443 18.616 87.5443 7.888 87.5443 5.944C87.5443 4.432 87.7603 2.128 86.9683 0.903997C84.8803 1.48 82.8643 1.12 80.7763 1.552C80.6323 2.056 80.2723 2.632 79.8403 2.848C75.8803 1.48 70.6243 1.12 66.3043 1.12ZM99.0581 20.704C99.0581 15.448 103.09 14.368 107.266 14.368C112.234 14.368 112.522 21.352 112.522 24.88C112.522 30.784 110.578 34.312 104.242 34.312C98.4101 34.312 98.9141 29.056 98.9861 24.808L99.0581 20.704ZM99.2741 0.759999C98.0501 1.552 96.6101 2.272 95.4581 3.28C91.4981 6.664 91.5701 20.992 91.5701 26.104C91.5701 32.728 91.4981 39.568 92.9381 46.048C97.1861 49.36 103.594 48.856 108.778 48.856C110.938 48.856 113.242 48.496 115.402 48.136C119.794 43.528 119.29 20.128 119.29 12.496C119.29 9.328 118.786 5.944 118.282 2.704C111.73 1.12 105.898 0.975996 99.2741 0.759999Z" fill="#2EFFCD"/>
</svg>
